M48
;Layer_Color=9474304
;FILE_FORMAT=4:4
METRIC,LZ
;TYPE=PLATED
T1F00S00C0.2540
T2F00S00C1.0000
T3F00S00C1.6000
%
T01
X0161Y01274
X0159Y013
X016Y01325
X01599Y01356
Y01362
X01605
Y01356
X0159Y01369
X01645
X01654Y01362
Y01356
X0166
Y01362
X01655Y01325
X01645Y013
X01665Y01274
X0172
X017Y013
X0171Y01325
X01709Y01356
Y01362
X01715
Y01356
X017Y01369
X01755
X01764Y01362
Y01356
X0177
Y01362
X01765Y01325
X01755Y013
X01775Y01274
X01785Y0142
Y0144
Y0146
Y0148
Y015
Y0152
X01745
X0173
Y015
X01745
Y0148
X0173
Y0146
X01745
Y0144
X0173
Y0142
X01745
X0169
X01675
Y0144
X0169
Y0146
X01675
Y0148
X0169
Y015
X01675
Y0152
X0169
X01635
X0162
Y015
X01635
Y0148
X0162
Y0146
X01635
Y0144
X0162
Y0142
X01635
X0158
X01565
Y0144
X0158
Y0146
X01565
Y0148
X0158
Y015
X01565
Y0152
X0158
X01525
X0151
Y015
X01525
Y0148
X0151
Y0146
X01525
Y0144
X0151
Y0142
X01525
X0147
X01455
Y0144
X0147
Y0146
X01455
Y0148
X0147
Y015
X01455
Y0152
X0147
X01415
X014
Y015
X01415
Y0148
X014
Y0146
X01415
Y0144
X014
Y0142
X01415
X0136
X01345
Y0144
X0136
Y0146
X01345
Y0148
X0136
Y015
X01345
Y0152
X0136
X01305
X0129
Y015
X01305
Y0148
X0129
Y0146
X01305
Y0144
X0129
Y0142
X01305
X0125
Y0144
Y0146
Y0148
Y015
Y0152
X0126Y01369
X01269Y01362
Y01356
X01275
Y01362
X0127Y01325
X0126Y013
X0128Y01274
X01335
X01315Y013
X01325Y01325
X01324Y01356
Y01362
X0133
Y01356
X01315Y01369
X0137
X01379Y01362
Y01356
X01385
Y01362
X0138Y01325
X0137Y013
X0139Y01274
X01445
X01425Y013
X01435Y01325
X01434Y01356
Y01362
X0144
Y01356
X01425Y01369
X0148
X01489Y01362
Y01356
X01495
Y01362
X0149Y01325
X0148Y013
X015Y01274
X01555
X01535Y013
X01545Y01325
X01544Y01356
Y01362
X0155
Y01356
X01535Y01369
T02
X0162Y01545
X01675
X0173
X01785
X01565
X0151
X01455
X014
X01345
X0129
X0122Y0136
Y0131
T03
X0122Y0127
Y01425
Y01535
M30
