G04*
G04 #@! TF.GenerationSoftware,Altium Limited,Altium Designer,18.1.7 (191)*
G04*
G04 Layer_Color=32896*
%FSLAX44Y44*%
%MOMM*%
G71*
G01*
G75*
%ADD10C,0.2000*%
%ADD12C,0.1800*%
G36*
X1453497Y1450972D02*
X1454386Y1450766D01*
X1454727Y1450630D01*
X1455001Y1450562D01*
X1455206Y1450425D01*
X1455274D01*
X1456026Y1450015D01*
X1456641Y1449604D01*
X1457188Y1449194D01*
X1457598Y1448716D01*
X1457872Y1448374D01*
X1458077Y1448033D01*
X1458214Y1447827D01*
X1458282Y1447759D01*
X1458487Y1447281D01*
X1458555Y1446939D01*
X1458692Y1446665D01*
Y1446529D01*
Y1446119D01*
X1458555Y1445777D01*
X1458350Y1445504D01*
X1458282Y1445435D01*
X1458077Y1445298D01*
X1457598D01*
X1457393Y1445367D01*
X1457325Y1445435D01*
X1456983Y1445777D01*
X1456710Y1446050D01*
X1456505Y1446187D01*
X1456436Y1446255D01*
X1456095Y1446529D01*
X1455753Y1446734D01*
X1455479Y1446871D01*
X1455411Y1446939D01*
X1455069Y1447144D01*
X1454727Y1447349D01*
X1454454Y1447417D01*
X1454386Y1447486D01*
X1453976Y1447554D01*
X1453702Y1447486D01*
X1453566Y1447417D01*
X1453497Y1447349D01*
X1453360Y1447007D01*
X1453292Y1446734D01*
X1453360Y1446460D01*
Y1446392D01*
X1453566Y1445982D01*
X1453634Y1445845D01*
Y1445777D01*
X1453907Y1445435D01*
X1453976Y1445298D01*
X1454044Y1445230D01*
X1454523Y1444683D01*
X1454933Y1444136D01*
X1455206Y1443795D01*
X1455343Y1443726D01*
Y1443658D01*
X1455821Y1443111D01*
X1456231Y1442564D01*
X1456505Y1442154D01*
X1456641Y1442086D01*
Y1442018D01*
X1457462Y1440856D01*
X1457803Y1440309D01*
X1458145Y1439830D01*
X1458418Y1439420D01*
X1458624Y1439078D01*
X1458760Y1438873D01*
X1458829Y1438805D01*
X1459581Y1437643D01*
X1459922Y1437096D01*
X1460264Y1436618D01*
X1460537Y1436208D01*
X1460742Y1435866D01*
X1460811Y1435661D01*
X1460879Y1435592D01*
X1461358Y1434431D01*
X1461563Y1433884D01*
X1461768Y1433405D01*
X1461904Y1432995D01*
X1462041Y1432653D01*
X1462110Y1432448D01*
Y1432380D01*
X1462383Y1431150D01*
X1462520Y1430603D01*
X1462656Y1430056D01*
X1462725Y1429646D01*
Y1429304D01*
X1462793Y1429099D01*
Y1429031D01*
X1462725Y1428757D01*
Y1428484D01*
Y1428347D01*
Y1428279D01*
X1462656Y1427937D01*
Y1427800D01*
Y1427732D01*
X1462520Y1427049D01*
X1462246Y1426433D01*
X1461904Y1425887D01*
X1461563Y1425408D01*
X1461289Y1425066D01*
X1461016Y1424793D01*
X1460811Y1424656D01*
X1460742Y1424588D01*
X1460059Y1424246D01*
X1459375Y1424109D01*
X1458760Y1424041D01*
X1458145Y1424109D01*
X1457598Y1424178D01*
X1457188Y1424315D01*
X1456915Y1424383D01*
X1456846Y1424451D01*
X1456095Y1424861D01*
X1455411Y1425271D01*
X1454796Y1425682D01*
X1454249Y1426023D01*
X1453839Y1426365D01*
X1453497Y1426638D01*
X1453292Y1426844D01*
X1453224Y1426912D01*
X1452130Y1428006D01*
X1451652Y1428484D01*
X1451173Y1428962D01*
X1450831Y1429373D01*
X1450558Y1429714D01*
X1450353Y1429919D01*
X1450285Y1429988D01*
X1450148Y1430193D01*
X1450080Y1430466D01*
Y1430671D01*
Y1430740D01*
Y1431081D01*
X1450148Y1431355D01*
X1450216Y1431423D01*
X1450285Y1431491D01*
X1450421Y1431628D01*
X1450695Y1431696D01*
X1451310D01*
X1451515Y1431628D01*
X1451652Y1431560D01*
X1451720D01*
X1452130Y1431286D01*
X1452404Y1431013D01*
X1452609Y1430808D01*
X1452677Y1430740D01*
X1453019Y1430398D01*
X1453292Y1430056D01*
X1453497Y1429783D01*
X1453566Y1429714D01*
X1454112Y1429099D01*
X1454659Y1428621D01*
X1455001Y1428279D01*
X1455069Y1428211D01*
X1455138Y1428142D01*
X1455753Y1427664D01*
X1456368Y1427390D01*
X1456573Y1427254D01*
X1456778Y1427185D01*
X1456915Y1427117D01*
X1456983D01*
X1457393Y1427049D01*
X1457667Y1426980D01*
X1458214Y1427049D01*
X1458487Y1427117D01*
X1458624Y1427185D01*
X1458829Y1427390D01*
X1458965Y1427595D01*
X1459034Y1428142D01*
X1458965Y1428552D01*
Y1428689D01*
Y1428757D01*
X1458829Y1429373D01*
X1458692Y1429919D01*
X1458624Y1430261D01*
X1458555Y1430329D01*
Y1430398D01*
X1458350Y1431013D01*
X1458077Y1431491D01*
X1457940Y1431765D01*
X1457872Y1431902D01*
X1457188Y1433064D01*
X1456573Y1434225D01*
X1455958Y1435251D01*
X1455411Y1436208D01*
X1454933Y1436960D01*
X1454591Y1437575D01*
X1454317Y1437985D01*
X1454249Y1438121D01*
X1453566Y1439283D01*
X1452882Y1440446D01*
X1452335Y1441471D01*
X1451788Y1442428D01*
X1451310Y1443248D01*
X1450968Y1443863D01*
X1450763Y1444273D01*
X1450695Y1444410D01*
X1450353Y1445025D01*
X1450080Y1445572D01*
X1449943Y1445982D01*
X1449875Y1446050D01*
Y1446119D01*
X1449601Y1446802D01*
X1449465Y1447417D01*
X1449328Y1447896D01*
Y1447964D01*
Y1448033D01*
X1449259Y1448443D01*
Y1448784D01*
X1449396Y1449400D01*
X1449601Y1449741D01*
X1449669Y1449878D01*
X1450148Y1450356D01*
X1450695Y1450698D01*
X1451173Y1450835D01*
X1451310Y1450903D01*
X1451378D01*
X1451788Y1451040D01*
X1452198Y1451108D01*
X1452540D01*
X1453497Y1450972D01*
D02*
G37*
G36*
X1599906Y1450493D02*
X1601205Y1450356D01*
X1602367Y1450220D01*
X1603392Y1450015D01*
X1604212Y1449741D01*
X1604896Y1449605D01*
X1605306Y1449468D01*
X1605374Y1449400D01*
X1605442D01*
X1606604Y1448921D01*
X1607630Y1448374D01*
X1608655Y1447691D01*
X1609475Y1447076D01*
X1610227Y1446529D01*
X1610705Y1446050D01*
X1611047Y1445708D01*
X1611184Y1445572D01*
X1611936Y1444752D01*
X1612619Y1443931D01*
X1613166Y1443111D01*
X1613713Y1442291D01*
X1614601Y1440719D01*
X1615217Y1439283D01*
X1615695Y1438053D01*
X1615832Y1437575D01*
X1615968Y1437096D01*
X1616037Y1436754D01*
X1616105Y1436481D01*
X1616174Y1436344D01*
Y1436276D01*
X1616310Y1435114D01*
X1616379Y1434567D01*
Y1434020D01*
X1616447Y1433610D01*
Y1433269D01*
Y1433064D01*
Y1432995D01*
X1616379Y1431696D01*
X1616242Y1430398D01*
X1616105Y1429167D01*
X1615832Y1428074D01*
X1615627Y1427185D01*
X1615490Y1426433D01*
X1615422Y1426160D01*
X1615353Y1425955D01*
X1615285Y1425887D01*
Y1425818D01*
X1614875Y1424656D01*
X1614396Y1423563D01*
X1613986Y1422606D01*
X1613508Y1421717D01*
X1613166Y1420965D01*
X1612824Y1420419D01*
X1612619Y1420077D01*
X1612551Y1419940D01*
X1611252Y1418026D01*
X1610637Y1417138D01*
X1610090Y1416317D01*
X1609543Y1415634D01*
X1609202Y1415155D01*
X1608928Y1414814D01*
X1608860Y1414677D01*
X1607356Y1412763D01*
X1605853Y1410849D01*
X1604485Y1409140D01*
X1603187Y1407637D01*
X1602572Y1406953D01*
X1602093Y1406407D01*
X1601615Y1405860D01*
X1601205Y1405381D01*
X1600863Y1405040D01*
X1600658Y1404766D01*
X1600521Y1404629D01*
X1600453Y1404561D01*
X1598812Y1402784D01*
X1597172Y1401075D01*
X1595600Y1399435D01*
X1594164Y1397999D01*
X1593549Y1397384D01*
X1593002Y1396837D01*
X1592456Y1396359D01*
X1592045Y1395949D01*
X1591704Y1395607D01*
X1591430Y1395334D01*
X1591294Y1395197D01*
X1591225Y1395128D01*
X1590473Y1394445D01*
X1589858Y1393830D01*
X1589585Y1393625D01*
X1589380Y1393420D01*
X1589243Y1393351D01*
X1589175Y1393283D01*
X1588354Y1392668D01*
X1587671Y1392121D01*
X1587398Y1391916D01*
X1587193Y1391711D01*
X1587056Y1391643D01*
X1586987Y1391574D01*
X1586714Y1391711D01*
X1586577Y1391779D01*
X1586372Y1391984D01*
X1586304Y1392053D01*
X1585142Y1393078D01*
X1583980Y1394103D01*
X1582955Y1395060D01*
X1582066Y1395949D01*
X1581314Y1396701D01*
X1580699Y1397247D01*
X1580357Y1397657D01*
X1580221Y1397794D01*
X1579127Y1398956D01*
X1578102Y1400050D01*
X1577145Y1401075D01*
X1576256Y1402032D01*
X1575573Y1402852D01*
X1575026Y1403467D01*
X1574684Y1403878D01*
X1574547Y1403946D01*
Y1404014D01*
X1573796Y1404971D01*
X1573112Y1405791D01*
X1572839Y1406133D01*
X1572634Y1406407D01*
X1572497Y1406543D01*
X1572429Y1406611D01*
X1571677Y1407637D01*
X1570993Y1408525D01*
X1570788Y1408867D01*
X1570583Y1409140D01*
X1570515Y1409346D01*
X1570446Y1409414D01*
X1570105Y1409961D01*
X1569900Y1410439D01*
X1569763Y1410918D01*
X1569695Y1411328D01*
Y1411669D01*
Y1411943D01*
X1569763Y1412080D01*
Y1412148D01*
X1569900Y1412626D01*
X1570105Y1413105D01*
X1570652Y1413857D01*
X1570925Y1414130D01*
X1571198Y1414335D01*
X1571335Y1414472D01*
X1571403Y1414540D01*
X1572018Y1415019D01*
X1572565Y1415361D01*
X1573181Y1415634D01*
X1573659Y1415839D01*
X1574137Y1415976D01*
X1574479Y1416112D01*
X1574684Y1416181D01*
X1574753D01*
X1576120Y1416317D01*
X1576803Y1416386D01*
X1577350Y1416317D01*
X1578239D01*
X1578512Y1416249D01*
X1578580D01*
X1579195Y1416112D01*
X1579674Y1415907D01*
X1580016Y1415771D01*
X1580084Y1415702D01*
X1580152D01*
X1580631Y1415361D01*
X1580973Y1414882D01*
X1581178Y1414540D01*
X1581246Y1414472D01*
Y1414404D01*
X1581383Y1413925D01*
X1581451Y1413583D01*
X1581519Y1413310D01*
Y1413173D01*
X1581451Y1412763D01*
X1581314Y1412353D01*
X1581178Y1412080D01*
X1581109Y1412011D01*
X1580768Y1411669D01*
X1580494Y1411533D01*
X1580221Y1411465D01*
X1579742D01*
X1579332Y1411533D01*
X1579059Y1411601D01*
X1578990D01*
X1578649Y1411669D01*
X1578375Y1411738D01*
X1578170Y1411806D01*
X1578102D01*
X1577760Y1411875D01*
X1577418Y1411943D01*
X1577213Y1412011D01*
X1577145D01*
X1576598Y1411943D01*
X1576188Y1411738D01*
X1575983Y1411533D01*
X1575915Y1411465D01*
X1575778Y1410986D01*
Y1410576D01*
Y1410234D01*
X1575846Y1410166D01*
Y1410098D01*
X1576120Y1409619D01*
X1576393Y1409209D01*
X1577145Y1408457D01*
X1577555Y1408184D01*
X1577828Y1407979D01*
X1578033Y1407842D01*
X1578102Y1407773D01*
X1578717Y1407432D01*
X1579332Y1407227D01*
X1579879Y1407090D01*
X1580357Y1407022D01*
X1580768Y1406953D01*
X1581314D01*
X1581929Y1407090D01*
X1582408Y1407227D01*
X1582886Y1407500D01*
X1583297Y1407705D01*
X1583638Y1407910D01*
X1583912Y1408115D01*
X1584048Y1408252D01*
X1584117Y1408320D01*
X1584527Y1408799D01*
X1584800Y1409277D01*
X1585074Y1409687D01*
X1585279Y1410166D01*
X1585415Y1410576D01*
X1585484Y1410849D01*
X1585552Y1411054D01*
Y1411123D01*
X1585621Y1412011D01*
Y1412900D01*
Y1413652D01*
X1585552Y1414404D01*
X1585484Y1414950D01*
X1585347Y1415361D01*
X1585279Y1415702D01*
Y1415771D01*
X1585005Y1416591D01*
X1584732Y1417343D01*
X1584390Y1418026D01*
X1584048Y1418641D01*
X1583775Y1419120D01*
X1583502Y1419530D01*
X1583365Y1419803D01*
X1583297Y1419872D01*
X1583023Y1420213D01*
X1582750Y1420419D01*
X1582545Y1420555D01*
X1582203D01*
X1581861Y1420350D01*
X1581588Y1420213D01*
X1581519Y1420145D01*
X1580699Y1419667D01*
X1579947Y1419256D01*
X1579195Y1418983D01*
X1578512Y1418778D01*
X1577897Y1418710D01*
X1577487Y1418641D01*
X1577145Y1418573D01*
X1576256D01*
X1575436Y1418710D01*
X1574616Y1418846D01*
X1573932Y1418983D01*
X1573317Y1419188D01*
X1572907Y1419325D01*
X1572565Y1419393D01*
X1572497Y1419462D01*
X1571745Y1419872D01*
X1571062Y1420282D01*
X1570652Y1420624D01*
X1570583Y1420760D01*
X1570515D01*
X1570241Y1421102D01*
X1570036Y1421444D01*
X1569763Y1422196D01*
Y1422469D01*
X1569695Y1422742D01*
Y1422879D01*
Y1422948D01*
Y1423426D01*
X1569831Y1423836D01*
X1570036Y1424520D01*
X1570173Y1424725D01*
X1570310Y1424930D01*
X1570378Y1424998D01*
X1570446Y1425066D01*
X1571062Y1425613D01*
X1571608Y1426092D01*
X1572087Y1426365D01*
X1572155Y1426502D01*
X1572224D01*
X1572360Y1426570D01*
X1572429D01*
X1572497Y1426638D01*
X1572565D01*
X1573796Y1427117D01*
X1574411Y1427322D01*
X1574958Y1427459D01*
X1575368Y1427527D01*
X1575778Y1427595D01*
X1575983Y1427664D01*
X1576051D01*
X1577418Y1427732D01*
X1578033Y1427664D01*
X1578580D01*
X1579059Y1427595D01*
X1579400Y1427527D01*
X1579674Y1427459D01*
X1579742D01*
X1580152Y1427390D01*
X1580562Y1427322D01*
X1581383D01*
X1581519Y1427459D01*
X1581656Y1427664D01*
X1581929Y1428142D01*
X1582135Y1428621D01*
X1582203Y1428757D01*
Y1428826D01*
X1582476Y1429783D01*
X1582681Y1430740D01*
X1582818Y1431628D01*
X1582886Y1432448D01*
X1582955Y1433132D01*
X1583023Y1433610D01*
Y1433952D01*
Y1434089D01*
X1582955Y1436003D01*
X1582818Y1436891D01*
X1582681Y1437643D01*
X1582613Y1438327D01*
X1582476Y1438873D01*
X1582408Y1439147D01*
Y1439283D01*
X1581929Y1440514D01*
X1581724Y1441061D01*
X1581451Y1441539D01*
X1581178Y1441949D01*
X1581041Y1442223D01*
X1580904Y1442428D01*
X1580836Y1442496D01*
X1580426Y1443043D01*
X1579947Y1443453D01*
X1579469Y1443863D01*
X1579059Y1444205D01*
X1578649Y1444410D01*
X1578307Y1444615D01*
X1578102Y1444752D01*
X1578033D01*
X1577350Y1445025D01*
X1576735Y1445230D01*
X1575368Y1445435D01*
X1574137Y1445504D01*
X1572975Y1445435D01*
X1571950Y1445230D01*
X1571198Y1445025D01*
X1570925Y1444957D01*
X1570720Y1444888D01*
X1570583Y1444820D01*
X1570515D01*
X1569079Y1444205D01*
X1567917Y1443385D01*
X1566960Y1442564D01*
X1566140Y1441744D01*
X1565594Y1440992D01*
X1565183Y1440377D01*
X1564978Y1439899D01*
X1564910Y1439830D01*
Y1439762D01*
X1564705Y1439283D01*
X1564637Y1438805D01*
X1564568Y1437917D01*
X1564637Y1437575D01*
Y1437301D01*
X1564705Y1437165D01*
Y1437096D01*
X1564842Y1436686D01*
X1565115Y1436276D01*
X1565594Y1435729D01*
X1566004Y1435388D01*
X1566140Y1435251D01*
X1566209D01*
X1566687Y1435046D01*
X1567097Y1434909D01*
X1567917Y1434841D01*
X1568191Y1434909D01*
X1568464D01*
X1568601Y1434977D01*
X1568669D01*
X1569079Y1435182D01*
X1569489Y1435388D01*
X1570173Y1435934D01*
X1570583Y1436413D01*
X1570652Y1436550D01*
X1570720Y1436618D01*
X1570993Y1437028D01*
X1571198Y1437438D01*
X1571403Y1437711D01*
X1571472Y1437780D01*
X1571745Y1438190D01*
X1571950Y1438532D01*
X1572155Y1438805D01*
X1572224Y1438873D01*
X1572770Y1439420D01*
X1573249Y1439830D01*
X1573659Y1440035D01*
X1573727Y1440104D01*
X1573796D01*
X1574411Y1440240D01*
X1575026D01*
X1575299Y1440172D01*
X1575504D01*
X1575641Y1440104D01*
X1575710D01*
X1576461Y1439762D01*
X1577077Y1439352D01*
X1577418Y1439010D01*
X1577555Y1438942D01*
Y1438873D01*
X1577965Y1438190D01*
X1578239Y1437506D01*
X1578307Y1437233D01*
Y1436960D01*
X1578375Y1436823D01*
Y1436754D01*
Y1435934D01*
X1578307Y1435251D01*
X1578239Y1434977D01*
X1578170Y1434772D01*
X1578102Y1434636D01*
Y1434567D01*
X1577760Y1433815D01*
X1577418Y1433200D01*
X1577077Y1432722D01*
X1576940Y1432653D01*
Y1432585D01*
X1576051Y1431696D01*
X1575163Y1430876D01*
X1574274Y1430261D01*
X1573454Y1429783D01*
X1572702Y1429441D01*
X1572155Y1429167D01*
X1571814Y1429031D01*
X1571677Y1428962D01*
X1570583Y1428689D01*
X1569421Y1428552D01*
X1568396Y1428484D01*
X1567371D01*
X1566550Y1428552D01*
X1565867Y1428621D01*
X1565662D01*
X1565457Y1428689D01*
X1565320D01*
X1564021Y1429031D01*
X1562928Y1429578D01*
X1561971Y1430124D01*
X1561219Y1430740D01*
X1560604Y1431355D01*
X1560125Y1431833D01*
X1559852Y1432175D01*
X1559784Y1432312D01*
X1559237Y1433474D01*
X1558895Y1434567D01*
X1558690Y1435661D01*
X1558622Y1436686D01*
X1558690Y1437506D01*
X1558758Y1438190D01*
X1558827Y1438395D01*
Y1438600D01*
X1558895Y1438668D01*
Y1438737D01*
X1559169Y1439625D01*
X1559442Y1440446D01*
X1559784Y1441197D01*
X1560057Y1441812D01*
X1560331Y1442359D01*
X1560604Y1442769D01*
X1560741Y1443043D01*
X1560809Y1443111D01*
X1561834Y1444547D01*
X1562381Y1445162D01*
X1562928Y1445640D01*
X1563338Y1446119D01*
X1563680Y1446460D01*
X1563953Y1446665D01*
X1564021Y1446734D01*
X1564978Y1447486D01*
X1565935Y1448169D01*
X1566892Y1448648D01*
X1567781Y1449126D01*
X1568533Y1449400D01*
X1569079Y1449673D01*
X1569489Y1449741D01*
X1569558Y1449810D01*
X1569626D01*
X1570788Y1450083D01*
X1571882Y1450288D01*
X1572975Y1450356D01*
X1573932Y1450425D01*
X1575983D01*
X1577008Y1450356D01*
X1577965Y1450220D01*
X1578785Y1450015D01*
X1579537Y1449810D01*
X1580221Y1449605D01*
X1580699Y1449400D01*
X1580973Y1449331D01*
X1581109Y1449263D01*
X1581998Y1448853D01*
X1582818Y1448374D01*
X1583502Y1447896D01*
X1584185Y1447349D01*
X1584664Y1446939D01*
X1585074Y1446597D01*
X1585347Y1446324D01*
X1585415Y1446255D01*
X1585689Y1445982D01*
X1585962Y1445708D01*
X1586099Y1445504D01*
X1586167Y1445435D01*
X1586441Y1445162D01*
X1586646Y1444888D01*
X1586783Y1444683D01*
X1586851Y1444615D01*
X1587124Y1444752D01*
X1587261Y1444820D01*
X1587398Y1444888D01*
X1587466D01*
X1587739Y1445230D01*
X1587808Y1445367D01*
X1587876D01*
X1588218Y1445708D01*
X1588286Y1445845D01*
X1588354D01*
X1589175Y1446665D01*
X1589995Y1447349D01*
X1590747Y1447896D01*
X1591430Y1448374D01*
X1592045Y1448784D01*
X1592524Y1449058D01*
X1592797Y1449194D01*
X1592934Y1449263D01*
X1593891Y1449673D01*
X1594848Y1450015D01*
X1595805Y1450220D01*
X1596693Y1450356D01*
X1597445Y1450493D01*
X1597992Y1450562D01*
X1598539D01*
X1599906Y1450493D01*
D02*
G37*
G36*
X1512279Y1446871D02*
X1512690Y1446734D01*
X1512963Y1446597D01*
X1513031Y1446529D01*
X1513510Y1446050D01*
X1513920Y1445572D01*
X1514193Y1445162D01*
X1514262Y1445025D01*
Y1444957D01*
X1514398Y1444615D01*
X1514467Y1444341D01*
X1514535Y1443863D01*
X1514467Y1443590D01*
Y1443521D01*
X1514398Y1443385D01*
X1514262Y1443248D01*
X1514125Y1443179D01*
X1513578D01*
X1513031Y1443453D01*
X1512553Y1443726D01*
X1512211Y1443931D01*
X1512143Y1444000D01*
X1512074D01*
X1511528Y1444341D01*
X1510981Y1444615D01*
X1510639Y1444820D01*
X1510571Y1444888D01*
X1510502D01*
X1510366Y1444957D01*
X1510297Y1445093D01*
X1510229Y1445162D01*
Y1445230D01*
X1510092Y1445504D01*
X1510024Y1445640D01*
X1510229Y1445914D01*
X1510297Y1446050D01*
X1510502Y1446324D01*
X1510571Y1446392D01*
X1510639D01*
X1511118Y1446734D01*
X1511459Y1446871D01*
X1511733Y1446939D01*
X1511869D01*
X1512279Y1446871D01*
D02*
G37*
G36*
X1470722Y1446392D02*
X1470790D01*
X1471200Y1446255D01*
X1471542Y1446050D01*
X1472020Y1445572D01*
X1472362Y1445162D01*
X1472431Y1445025D01*
Y1444957D01*
X1472567Y1444547D01*
X1472704Y1444136D01*
X1472772Y1443385D01*
Y1443043D01*
X1472704Y1442769D01*
Y1442633D01*
Y1442564D01*
X1471884Y1442838D01*
X1471200Y1443111D01*
X1470927Y1443179D01*
X1470722Y1443316D01*
X1470653Y1443385D01*
X1470585D01*
X1469902Y1443863D01*
X1469355Y1444205D01*
X1468945Y1444478D01*
X1468876Y1444615D01*
X1468808D01*
X1468740Y1444683D01*
X1468671Y1444820D01*
Y1444957D01*
Y1445025D01*
Y1445435D01*
X1468740Y1445504D01*
Y1445572D01*
X1469013Y1445914D01*
X1469286Y1446119D01*
X1469491Y1446255D01*
X1469628Y1446324D01*
X1470107Y1446392D01*
X1470448Y1446460D01*
X1470722Y1446392D01*
D02*
G37*
G36*
X1469902Y1441266D02*
X1470038Y1441129D01*
X1470175Y1441061D01*
X1470448Y1440992D01*
X1470517Y1440924D01*
X1470585D01*
X1472294Y1440035D01*
X1473114Y1439625D01*
X1473798Y1439215D01*
X1474413Y1438873D01*
X1474823Y1438600D01*
X1475096Y1438463D01*
X1475233Y1438395D01*
X1476122Y1437985D01*
X1477010Y1437643D01*
X1477830Y1437438D01*
X1478651Y1437233D01*
X1479334Y1437165D01*
X1479812Y1437096D01*
X1480291D01*
X1480633Y1437028D01*
X1480838Y1436891D01*
X1480974Y1436754D01*
Y1436686D01*
X1481043Y1436413D01*
X1480974Y1436208D01*
X1480906Y1436071D01*
Y1436003D01*
X1480428Y1435592D01*
X1480291Y1435456D01*
X1480223Y1435388D01*
X1479744Y1435114D01*
X1479539Y1434977D01*
X1479471D01*
X1479129Y1434909D01*
X1478445D01*
X1478035Y1434977D01*
X1477215D01*
X1477420Y1434431D01*
X1477625Y1434020D01*
X1477762Y1433747D01*
X1477830Y1433610D01*
X1478035Y1433200D01*
X1478240Y1432790D01*
X1478309Y1432517D01*
X1478377Y1432448D01*
X1478719Y1431765D01*
X1478992Y1431150D01*
X1479197Y1430671D01*
X1479266Y1430603D01*
Y1430535D01*
X1479608Y1429851D01*
X1479812Y1429236D01*
X1479949Y1428757D01*
X1480018Y1428689D01*
Y1428621D01*
X1480154Y1427800D01*
X1480223Y1427049D01*
X1480086Y1426433D01*
X1479949Y1425887D01*
X1479744Y1425408D01*
X1479539Y1425135D01*
X1479402Y1424930D01*
X1479334Y1424861D01*
X1478787Y1424383D01*
X1478240Y1424109D01*
X1477625Y1423904D01*
X1477010Y1423768D01*
X1475643D01*
X1475370Y1423836D01*
X1475096Y1423904D01*
X1474891Y1423973D01*
X1474823D01*
X1474550Y1424109D01*
X1474276Y1424178D01*
X1474071Y1424315D01*
X1474003D01*
X1472909Y1424998D01*
X1472431Y1425340D01*
X1471952Y1425682D01*
X1471610Y1425955D01*
X1471337Y1426160D01*
X1471200Y1426297D01*
X1471132Y1426365D01*
X1470243Y1427254D01*
X1469560Y1428074D01*
X1469286Y1428416D01*
X1469081Y1428689D01*
X1468945Y1428894D01*
X1468876Y1428962D01*
X1468535Y1429441D01*
X1468466Y1429578D01*
Y1429646D01*
Y1429988D01*
X1468535Y1430329D01*
X1468671Y1430603D01*
X1468740Y1430740D01*
X1469218Y1430329D01*
X1469355Y1430261D01*
X1469423Y1430193D01*
X1469833Y1429851D01*
X1469970Y1429714D01*
X1470038Y1429646D01*
X1470722Y1429031D01*
X1471337Y1428484D01*
X1471747Y1428074D01*
X1471815Y1428006D01*
X1471884Y1427937D01*
X1472567Y1427390D01*
X1473114Y1426844D01*
X1473593Y1426502D01*
X1473661Y1426433D01*
X1473729Y1426365D01*
X1474071Y1426092D01*
X1474481Y1425887D01*
X1474686Y1425750D01*
X1474823Y1425682D01*
X1475028Y1425613D01*
X1475233Y1425545D01*
X1475643Y1425613D01*
X1475985Y1425750D01*
X1476053Y1425818D01*
X1476122D01*
X1476395Y1426092D01*
X1476532Y1426433D01*
X1476600Y1426638D01*
Y1426775D01*
Y1427322D01*
X1476463Y1427800D01*
X1476327Y1428211D01*
X1476258Y1428279D01*
Y1428347D01*
X1476122Y1428757D01*
X1475916Y1429099D01*
X1475848Y1429304D01*
X1475780Y1429373D01*
X1475643Y1429783D01*
X1475438Y1430124D01*
X1475370Y1430329D01*
X1475301Y1430398D01*
X1474823Y1431286D01*
X1474413Y1432107D01*
X1474276Y1432380D01*
X1474139Y1432653D01*
X1474003Y1432790D01*
Y1432858D01*
X1473524Y1433747D01*
X1473114Y1434567D01*
X1472909Y1434841D01*
X1472841Y1435114D01*
X1472704Y1435251D01*
Y1435319D01*
X1472157Y1436344D01*
X1471679Y1437301D01*
X1471474Y1437643D01*
X1471337Y1437917D01*
X1471200Y1438121D01*
Y1438190D01*
X1470653Y1439352D01*
X1470380Y1439830D01*
X1470107Y1440309D01*
X1469902Y1440719D01*
X1469765Y1441061D01*
X1469697Y1441266D01*
X1469628Y1441334D01*
X1469902Y1441266D01*
D02*
G37*
G36*
X1528000Y1450015D02*
X1528274Y1449946D01*
X1528479D01*
X1528615Y1449878D01*
X1528684D01*
X1530803Y1449194D01*
X1532717Y1448374D01*
X1534494Y1447554D01*
X1535997Y1446734D01*
X1536613Y1446324D01*
X1537228Y1445914D01*
X1537706Y1445640D01*
X1538116Y1445298D01*
X1538458Y1445093D01*
X1538731Y1444888D01*
X1538868Y1444820D01*
X1538936Y1444752D01*
X1540509Y1443385D01*
X1541876Y1441881D01*
X1543038Y1440446D01*
X1544063Y1439010D01*
X1544883Y1437711D01*
X1545156Y1437165D01*
X1545430Y1436686D01*
X1545635Y1436344D01*
X1545772Y1436071D01*
X1545908Y1435866D01*
Y1435798D01*
X1546250Y1434841D01*
X1546592Y1434020D01*
X1546729Y1433132D01*
X1546865Y1432380D01*
X1546934Y1430945D01*
X1546865Y1429714D01*
X1546660Y1428689D01*
X1546523Y1428347D01*
X1546387Y1428006D01*
X1546318Y1427732D01*
X1546182Y1427527D01*
X1546113Y1427459D01*
Y1427390D01*
X1545635Y1426775D01*
X1545156Y1426297D01*
X1543994Y1425477D01*
X1542696Y1424861D01*
X1541465Y1424451D01*
X1540303Y1424178D01*
X1539757Y1424109D01*
X1539347Y1424041D01*
X1539005Y1423973D01*
X1538458D01*
X1537843Y1424041D01*
X1537296Y1424109D01*
X1536886Y1424178D01*
X1536749D01*
X1536134Y1424246D01*
X1535587Y1424383D01*
X1535246Y1424451D01*
X1535109Y1424520D01*
X1533810Y1424998D01*
X1533263Y1425271D01*
X1532785Y1425545D01*
X1532375Y1425750D01*
X1532033Y1425955D01*
X1531828Y1426023D01*
X1531760Y1426092D01*
X1531281Y1426502D01*
X1530803Y1426980D01*
X1530461Y1427390D01*
X1530188Y1427869D01*
X1529914Y1428279D01*
X1529777Y1428621D01*
X1529641Y1428894D01*
Y1428962D01*
X1529436Y1429714D01*
Y1430329D01*
Y1430603D01*
Y1430808D01*
Y1430876D01*
Y1430945D01*
X1529504Y1431286D01*
X1529641Y1431628D01*
X1529914Y1432175D01*
X1530256Y1432517D01*
X1530324Y1432653D01*
X1530392D01*
X1530734Y1432927D01*
X1531008Y1433200D01*
X1531623Y1433474D01*
X1532033Y1433679D01*
X1532990D01*
X1533673Y1433542D01*
X1533947D01*
X1534152Y1433474D01*
X1534289Y1433405D01*
X1534357D01*
X1535109Y1433064D01*
X1535656Y1432722D01*
X1536066Y1432517D01*
X1536134Y1432380D01*
X1536202D01*
X1536681Y1431833D01*
X1536954Y1431218D01*
X1537023Y1430945D01*
Y1430740D01*
X1537091Y1430603D01*
Y1430535D01*
Y1429919D01*
X1537023Y1429509D01*
X1536954Y1429236D01*
X1536886Y1429167D01*
X1536613Y1428826D01*
X1536271Y1428621D01*
X1535997Y1428484D01*
X1535861D01*
X1535314Y1428416D01*
X1534904D01*
X1534630Y1428484D01*
X1534562Y1428552D01*
X1534220Y1428826D01*
X1533947Y1429167D01*
X1533810Y1429441D01*
X1533742Y1429578D01*
X1533537Y1429988D01*
X1533468Y1430124D01*
Y1430193D01*
X1533332Y1430603D01*
X1533195Y1430671D01*
Y1430740D01*
X1533058Y1430876D01*
X1532921Y1430945D01*
X1532785Y1431013D01*
X1532717D01*
X1532511Y1431081D01*
X1532375D01*
X1532238Y1431013D01*
X1532101Y1430945D01*
X1531965Y1430808D01*
X1531896Y1430740D01*
Y1430671D01*
X1531828Y1430466D01*
Y1430261D01*
Y1430193D01*
Y1430124D01*
X1531896Y1429714D01*
X1531965Y1429578D01*
Y1429509D01*
X1532170Y1429099D01*
X1532238Y1428962D01*
Y1428894D01*
X1532648Y1428279D01*
X1533127Y1427800D01*
X1533673Y1427322D01*
X1534220Y1426980D01*
X1534699Y1426707D01*
X1535109Y1426502D01*
X1535382Y1426433D01*
X1535450Y1426365D01*
X1536271Y1426092D01*
X1537023Y1425955D01*
X1537706Y1425887D01*
X1538253D01*
X1538800Y1425955D01*
X1539142Y1426023D01*
X1539415Y1426092D01*
X1539483D01*
X1540372Y1426502D01*
X1540987Y1426912D01*
X1541397Y1427254D01*
X1541465Y1427322D01*
X1541534Y1427390D01*
X1541944Y1428211D01*
X1542217Y1428962D01*
X1542286Y1429304D01*
X1542354Y1429578D01*
Y1429714D01*
Y1429783D01*
Y1430740D01*
X1542286Y1431628D01*
X1542217Y1431902D01*
Y1432175D01*
X1542149Y1432312D01*
Y1432380D01*
X1541876Y1433269D01*
X1541602Y1434020D01*
X1541465Y1434362D01*
X1541329Y1434567D01*
X1541260Y1434704D01*
Y1434772D01*
X1540372Y1436413D01*
X1539962Y1437165D01*
X1539552Y1437780D01*
X1539210Y1438327D01*
X1538936Y1438805D01*
X1538800Y1439078D01*
X1538731Y1439147D01*
X1537638Y1440650D01*
X1537091Y1441334D01*
X1536613Y1441949D01*
X1536134Y1442428D01*
X1535792Y1442769D01*
X1535587Y1443043D01*
X1535519Y1443111D01*
X1534425Y1444205D01*
X1533947Y1444683D01*
X1533468Y1445093D01*
X1533058Y1445435D01*
X1532717Y1445708D01*
X1532511Y1445845D01*
X1532443Y1445914D01*
X1531213Y1446734D01*
X1530598Y1447076D01*
X1529982Y1447349D01*
X1529504Y1447622D01*
X1529162Y1447759D01*
X1528889Y1447896D01*
X1528820D01*
X1528410Y1448033D01*
X1528000Y1448101D01*
X1527727Y1448169D01*
X1527659D01*
X1527180Y1448237D01*
X1526838Y1448306D01*
X1526428D01*
X1526018Y1448237D01*
X1525676Y1448169D01*
X1525471Y1448033D01*
X1525403Y1447964D01*
X1525130Y1447622D01*
X1524993Y1447281D01*
X1524924Y1447007D01*
Y1446939D01*
Y1446871D01*
Y1446460D01*
X1524993Y1446050D01*
X1525266Y1445298D01*
X1525471Y1444957D01*
X1525608Y1444752D01*
X1525676Y1444615D01*
X1525745Y1444547D01*
X1526086Y1444136D01*
X1526428Y1443795D01*
X1526770Y1443521D01*
X1527112Y1443385D01*
X1527385Y1443248D01*
X1527590Y1443179D01*
X1527727Y1443111D01*
X1528684D01*
X1528957Y1443248D01*
X1529094Y1443521D01*
X1529162Y1443795D01*
Y1443931D01*
X1529231Y1444205D01*
X1529299Y1444341D01*
X1529436Y1444615D01*
X1529641Y1444683D01*
X1530392D01*
X1530598Y1444615D01*
X1530666D01*
X1531008Y1444478D01*
X1531281Y1444205D01*
X1531418Y1444000D01*
X1531486Y1443931D01*
X1531623Y1443521D01*
X1531555Y1443179D01*
Y1442906D01*
X1531486Y1442838D01*
X1531076Y1442291D01*
X1530734Y1441881D01*
X1530461Y1441607D01*
X1530324Y1441539D01*
X1529777Y1441266D01*
X1529231Y1441129D01*
X1528752Y1441061D01*
X1528615D01*
X1527659Y1441129D01*
X1526770Y1441334D01*
X1526018Y1441607D01*
X1525334Y1442018D01*
X1524788Y1442359D01*
X1524446Y1442701D01*
X1524173Y1442906D01*
X1524104Y1442975D01*
X1523489Y1443726D01*
X1523011Y1444410D01*
X1522601Y1445025D01*
X1522327Y1445572D01*
X1522122Y1446050D01*
X1521985Y1446460D01*
X1521917Y1446665D01*
Y1446734D01*
X1521849Y1447144D01*
Y1447486D01*
X1521985Y1448101D01*
X1522190Y1448511D01*
X1522259Y1448579D01*
Y1448648D01*
X1522737Y1449194D01*
X1523284Y1449536D01*
X1523763Y1449673D01*
X1523899Y1449741D01*
X1523967D01*
X1524856Y1449878D01*
X1525608Y1449946D01*
X1525881D01*
X1526155Y1450015D01*
X1526360D01*
X1527248Y1450083D01*
X1528000Y1450015D01*
D02*
G37*
G36*
X1511664Y1441539D02*
X1512074Y1441334D01*
X1512416Y1441197D01*
X1512484Y1441129D01*
X1512895Y1440924D01*
X1513236Y1440719D01*
X1513510Y1440582D01*
X1513578Y1440514D01*
X1515013Y1439762D01*
X1515629Y1439420D01*
X1516244Y1439147D01*
X1516722Y1438873D01*
X1517132Y1438668D01*
X1517406Y1438600D01*
X1517474Y1438532D01*
X1518226Y1438190D01*
X1518909Y1437985D01*
X1519661Y1437780D01*
X1520276Y1437711D01*
X1520892Y1437643D01*
X1521302Y1437575D01*
X1521712D01*
X1522054Y1437506D01*
X1522327Y1437301D01*
X1522464Y1437096D01*
Y1437028D01*
X1522532Y1436686D01*
X1522395Y1436344D01*
X1522259Y1436139D01*
X1522190Y1436071D01*
X1521712Y1435798D01*
X1521507Y1435729D01*
X1521438Y1435661D01*
X1521097Y1435524D01*
X1520823Y1435456D01*
X1520618Y1435388D01*
X1520550D01*
X1520276Y1435319D01*
X1518636D01*
X1519046Y1434567D01*
X1519320Y1433952D01*
X1519593Y1433542D01*
X1519661Y1433474D01*
Y1433405D01*
X1520003Y1432722D01*
X1520276Y1432175D01*
X1520482Y1431765D01*
X1520550Y1431696D01*
Y1431628D01*
X1520755Y1431013D01*
X1520960Y1430466D01*
X1521097Y1430056D01*
X1521165Y1429988D01*
Y1429919D01*
X1521370Y1429304D01*
X1521507Y1428757D01*
X1521644Y1428347D01*
Y1428279D01*
Y1428211D01*
Y1427322D01*
X1521575Y1426638D01*
X1521507Y1426365D01*
X1521438Y1426160D01*
X1521370Y1426023D01*
Y1425955D01*
X1520892Y1425340D01*
X1520413Y1424930D01*
X1520003Y1424656D01*
X1519935Y1424588D01*
X1519866D01*
X1519115Y1424383D01*
X1518499Y1424246D01*
X1518226Y1424178D01*
X1517816D01*
X1517064Y1424246D01*
X1516449Y1424383D01*
X1516176Y1424451D01*
X1515970Y1424520D01*
X1515902Y1424588D01*
X1515834D01*
X1515150Y1424930D01*
X1514535Y1425340D01*
X1514057Y1425682D01*
X1513578Y1426023D01*
X1513168Y1426297D01*
X1512895Y1426570D01*
X1512758Y1426707D01*
X1512690Y1426775D01*
X1511664Y1427800D01*
X1510844Y1428757D01*
X1510502Y1429099D01*
X1510297Y1429441D01*
X1510161Y1429646D01*
X1510092Y1429714D01*
X1509887Y1430124D01*
X1509819Y1430261D01*
Y1430329D01*
X1509887Y1430603D01*
X1510024Y1430876D01*
X1510229Y1431081D01*
X1510297Y1431150D01*
X1510776Y1430740D01*
X1510912Y1430603D01*
X1510981Y1430535D01*
X1511459Y1430124D01*
X1511596Y1429988D01*
X1511664Y1429919D01*
X1512279Y1429373D01*
X1512826Y1428826D01*
X1513236Y1428484D01*
X1513305Y1428416D01*
X1513373Y1428347D01*
X1514057Y1427800D01*
X1514603Y1427322D01*
X1515013Y1426980D01*
X1515082Y1426844D01*
X1515150D01*
X1515560Y1426570D01*
X1515902Y1426365D01*
X1516176Y1426228D01*
X1516244Y1426160D01*
X1516449Y1426092D01*
X1516722Y1426023D01*
X1517132Y1426092D01*
X1517474Y1426160D01*
X1517543Y1426228D01*
X1517611D01*
X1517884Y1426502D01*
X1518021Y1426844D01*
X1518089Y1427117D01*
Y1427185D01*
X1518021Y1427732D01*
X1517884Y1428279D01*
X1517747Y1428689D01*
X1517679Y1428757D01*
Y1428826D01*
X1517543Y1429236D01*
X1517337Y1429578D01*
X1517269Y1429783D01*
X1517201Y1429851D01*
X1517064Y1430261D01*
X1516859Y1430603D01*
X1516791Y1430808D01*
X1516722Y1430876D01*
X1516244Y1431833D01*
X1515765Y1432653D01*
X1515629Y1432927D01*
X1515492Y1433200D01*
X1515355Y1433337D01*
Y1433405D01*
X1514877Y1434294D01*
X1514467Y1435114D01*
X1514262Y1435388D01*
X1514193Y1435661D01*
X1514057Y1435798D01*
Y1435866D01*
X1513510Y1436891D01*
X1513100Y1437848D01*
X1512895Y1438190D01*
X1512826Y1438463D01*
X1512690Y1438668D01*
Y1438737D01*
X1512143Y1439830D01*
X1511596Y1440787D01*
X1511391Y1441197D01*
X1511254Y1441539D01*
X1511186Y1441744D01*
X1511118Y1441812D01*
X1511664Y1441539D01*
D02*
G37*
G36*
X1497516Y1441471D02*
X1497652Y1441402D01*
X1497721D01*
X1498814Y1440719D01*
X1499703Y1440035D01*
X1500113Y1439830D01*
X1500386Y1439625D01*
X1500591Y1439489D01*
X1500660Y1439420D01*
X1501685Y1438737D01*
X1502642Y1438053D01*
X1502984Y1437848D01*
X1503257Y1437643D01*
X1503462Y1437506D01*
X1503530Y1437438D01*
Y1437370D01*
Y1437301D01*
Y1437096D01*
Y1437028D01*
Y1436960D01*
X1503189Y1437028D01*
X1502847D01*
X1502574Y1437096D01*
X1502095D01*
X1501685Y1437165D01*
X1501275D01*
X1501412Y1436823D01*
X1501548Y1436549D01*
X1501617Y1436413D01*
X1501685Y1436344D01*
X1501890Y1435934D01*
X1501958Y1435798D01*
X1502027Y1435729D01*
X1502437Y1434841D01*
X1502847Y1434089D01*
X1502984Y1433747D01*
X1503120Y1433542D01*
X1503189Y1433405D01*
Y1433337D01*
X1503599Y1432448D01*
X1504009Y1431696D01*
X1504146Y1431423D01*
X1504282Y1431150D01*
X1504351Y1431013D01*
Y1430945D01*
X1504624Y1430261D01*
X1504829Y1429714D01*
X1504966Y1429236D01*
X1505034Y1429167D01*
Y1429099D01*
X1505103Y1428416D01*
X1505171Y1427800D01*
X1505103Y1427322D01*
Y1427254D01*
Y1427185D01*
X1504966Y1426365D01*
X1504761Y1425750D01*
X1504556Y1425408D01*
X1504487Y1425271D01*
X1504282Y1425066D01*
X1504077Y1424861D01*
X1503530Y1424588D01*
X1503052Y1424451D01*
X1502915Y1424383D01*
X1502847D01*
X1501958Y1424246D01*
X1501138Y1424178D01*
X1500386D01*
X1499703Y1424246D01*
X1499156Y1424315D01*
X1498746Y1424451D01*
X1498472Y1424520D01*
X1498404D01*
X1497652Y1424793D01*
X1496900Y1425135D01*
X1496285Y1425477D01*
X1495670Y1425818D01*
X1495260Y1426160D01*
X1494850Y1426433D01*
X1494645Y1426638D01*
X1494576Y1426707D01*
X1493961Y1427185D01*
X1493414Y1427664D01*
X1493073Y1428074D01*
X1493004Y1428142D01*
X1492936Y1428211D01*
X1492389Y1428826D01*
X1491911Y1429373D01*
X1491569Y1429783D01*
X1491432Y1429851D01*
Y1429919D01*
X1491091Y1430261D01*
X1490817Y1430466D01*
X1490612Y1430535D01*
X1490544Y1430603D01*
X1490134Y1430671D01*
X1489724Y1430740D01*
X1489450Y1430671D01*
X1489313D01*
X1488835Y1430603D01*
X1488425D01*
X1487741Y1430671D01*
X1487468Y1430740D01*
X1487263Y1430808D01*
X1487126Y1430876D01*
X1487058D01*
X1486306Y1431355D01*
X1485759Y1431833D01*
X1485349Y1432243D01*
X1485281Y1432380D01*
X1485212Y1432448D01*
X1485896Y1432585D01*
X1486511D01*
X1486921Y1432517D01*
X1486989Y1432448D01*
X1487058D01*
X1487399Y1432380D01*
X1487741D01*
X1488288Y1432517D01*
X1488698Y1432722D01*
X1488766Y1432858D01*
X1488835D01*
X1488630Y1433405D01*
X1488425Y1433884D01*
X1488356Y1434225D01*
X1488288Y1434362D01*
X1488083Y1434909D01*
X1487946Y1435319D01*
X1487810Y1435661D01*
Y1435798D01*
X1487673Y1436344D01*
X1487536Y1436754D01*
X1487468Y1437096D01*
Y1437233D01*
X1487399Y1437780D01*
X1487331Y1438258D01*
Y1438600D01*
Y1438737D01*
Y1439283D01*
X1487399Y1439762D01*
X1487468Y1440035D01*
Y1440172D01*
X1487741Y1440582D01*
X1488083Y1440924D01*
X1488356Y1441129D01*
X1488425Y1441197D01*
X1488493D01*
X1488972Y1441334D01*
X1489382D01*
X1489655Y1441266D01*
X1489792Y1441197D01*
X1490202Y1440992D01*
X1490544Y1440787D01*
X1490817Y1440582D01*
X1490885Y1440514D01*
X1491432Y1440035D01*
X1491911Y1439489D01*
X1492321Y1439010D01*
X1492594Y1438532D01*
X1492799Y1438121D01*
X1492936Y1437780D01*
X1493004Y1437575D01*
Y1437506D01*
X1493141Y1436891D01*
Y1436276D01*
Y1435661D01*
Y1435114D01*
X1493073Y1434636D01*
X1493004Y1434294D01*
X1492936Y1434020D01*
Y1433952D01*
X1492868Y1433542D01*
X1492799Y1433132D01*
Y1432858D01*
Y1432790D01*
X1492868Y1432448D01*
X1493004Y1432107D01*
X1493141Y1431833D01*
X1493209Y1431765D01*
X1494235Y1430535D01*
X1494781Y1429988D01*
X1495260Y1429509D01*
X1495670Y1429167D01*
X1496012Y1428894D01*
X1496217Y1428689D01*
X1496285Y1428621D01*
X1497584Y1427664D01*
X1498199Y1427185D01*
X1498746Y1426844D01*
X1499156Y1426502D01*
X1499498Y1426228D01*
X1499771Y1426092D01*
X1499839Y1426023D01*
X1499908Y1425955D01*
X1499976D01*
X1500045Y1425887D01*
X1500455Y1425818D01*
X1500796Y1425887D01*
X1501001Y1425955D01*
X1501070Y1426023D01*
X1501343Y1426297D01*
X1501480Y1426638D01*
Y1426912D01*
Y1427049D01*
X1501412Y1427390D01*
Y1427527D01*
Y1427595D01*
X1501343Y1428074D01*
X1501275Y1428211D01*
Y1428279D01*
X1500933Y1429167D01*
X1500591Y1429851D01*
X1500523Y1430193D01*
X1500386Y1430398D01*
X1500318Y1430535D01*
Y1430603D01*
X1499976Y1431491D01*
X1499634Y1432243D01*
X1499498Y1432585D01*
X1499361Y1432790D01*
X1499293Y1432927D01*
Y1432995D01*
X1498678Y1434294D01*
X1498404Y1434909D01*
X1498131Y1435388D01*
X1497926Y1435866D01*
X1497789Y1436208D01*
X1497721Y1436413D01*
X1497652Y1436481D01*
X1497037Y1437780D01*
X1496764Y1438395D01*
X1496559Y1438942D01*
X1496353Y1439352D01*
X1496217Y1439762D01*
X1496080Y1439967D01*
Y1440035D01*
Y1440514D01*
Y1440650D01*
Y1440719D01*
X1496149Y1440992D01*
X1496217Y1441197D01*
X1496285Y1441334D01*
X1496353D01*
X1496559Y1441471D01*
X1496764Y1441539D01*
X1497310D01*
X1497516Y1441471D01*
D02*
G37*
G36*
X1528410Y1418094D02*
X1529299Y1417958D01*
X1529641Y1417821D01*
X1529914Y1417753D01*
X1530051Y1417684D01*
X1530119D01*
X1530939Y1417206D01*
X1531623Y1416727D01*
X1531896Y1416454D01*
X1532101Y1416317D01*
X1532238Y1416181D01*
X1532306Y1416112D01*
X1532580Y1415771D01*
X1532785Y1415497D01*
X1532921Y1415292D01*
X1532990Y1415224D01*
X1533195Y1414882D01*
X1533400Y1414540D01*
X1533468Y1414267D01*
X1533537Y1414198D01*
X1533673Y1413857D01*
X1533742Y1413515D01*
Y1413242D01*
Y1413173D01*
X1533673Y1412832D01*
X1533468Y1412558D01*
X1533263Y1412421D01*
X1533195Y1412353D01*
X1532990D01*
X1532717Y1412421D01*
X1532511Y1412490D01*
X1532443Y1412558D01*
X1532101Y1412695D01*
X1531828Y1412900D01*
X1531691Y1412968D01*
X1531623Y1413036D01*
X1531281Y1413310D01*
X1531144Y1413378D01*
Y1413447D01*
X1530803Y1413788D01*
X1530734Y1413925D01*
X1530666D01*
X1530256Y1414198D01*
X1530119Y1414267D01*
X1530051D01*
X1529572Y1414472D01*
X1529436Y1414540D01*
X1529367D01*
X1528957Y1414609D01*
X1528684Y1414540D01*
X1528547Y1414472D01*
X1528479Y1414404D01*
X1528274Y1414130D01*
Y1413788D01*
Y1413583D01*
Y1413447D01*
X1528479Y1412968D01*
X1528547Y1412832D01*
X1528615Y1412763D01*
X1528889Y1412353D01*
X1528957Y1412216D01*
X1529026Y1412148D01*
X1529504Y1411533D01*
X1529914Y1411054D01*
X1530188Y1410644D01*
X1530324Y1410576D01*
Y1410508D01*
X1530734Y1409961D01*
X1531144Y1409414D01*
X1531418Y1409072D01*
X1531486Y1409004D01*
Y1408936D01*
X1532306Y1407705D01*
X1532717Y1407090D01*
X1533058Y1406611D01*
X1533400Y1406133D01*
X1533605Y1405791D01*
X1533742Y1405586D01*
X1533810Y1405518D01*
X1534630Y1404288D01*
X1535040Y1403741D01*
X1535314Y1403194D01*
X1535587Y1402784D01*
X1535792Y1402374D01*
X1535929Y1402169D01*
X1535997Y1402100D01*
X1536613Y1400938D01*
X1536818Y1400323D01*
X1537023Y1399845D01*
X1537159Y1399366D01*
X1537296Y1399025D01*
X1537364Y1398819D01*
Y1398751D01*
X1537706Y1397521D01*
X1537843Y1396906D01*
X1537911Y1396427D01*
X1537980Y1395949D01*
X1538048Y1395607D01*
X1538116Y1395402D01*
Y1395334D01*
X1537980Y1394308D01*
X1537775Y1393420D01*
X1537433Y1392599D01*
X1537091Y1391984D01*
X1536681Y1391506D01*
X1536407Y1391096D01*
X1536134Y1390891D01*
X1536066Y1390822D01*
X1535656Y1390549D01*
X1535246Y1390412D01*
X1534357Y1390207D01*
X1533537D01*
X1532717Y1390344D01*
X1531965Y1390549D01*
X1531418Y1390754D01*
X1531008Y1390959D01*
X1530871Y1391027D01*
X1529709Y1391779D01*
X1529162Y1392121D01*
X1528752Y1392463D01*
X1528410Y1392805D01*
X1528069Y1393010D01*
X1527932Y1393146D01*
X1527863Y1393215D01*
X1526838Y1394240D01*
X1525950Y1395128D01*
X1525608Y1395470D01*
X1525334Y1395744D01*
X1525198Y1395949D01*
X1525130Y1396017D01*
X1524924Y1396359D01*
X1524719Y1396632D01*
X1524651Y1396837D01*
X1524583Y1396906D01*
Y1397247D01*
X1524719Y1397589D01*
X1524856Y1397794D01*
X1524924Y1397863D01*
X1525266Y1398136D01*
X1525608Y1398204D01*
X1525950D01*
X1526360Y1398068D01*
X1526633Y1397863D01*
X1526907Y1397726D01*
X1526975Y1397657D01*
X1527248Y1397316D01*
X1527522Y1397042D01*
X1527727Y1396837D01*
X1527795Y1396769D01*
X1528137Y1396427D01*
X1528410Y1396154D01*
X1528547Y1395949D01*
X1528615Y1395880D01*
X1529231Y1395265D01*
X1529709Y1394718D01*
X1530119Y1394377D01*
X1530188Y1394308D01*
X1530256Y1394240D01*
X1530871Y1393761D01*
X1531486Y1393420D01*
X1531760Y1393351D01*
X1531965Y1393283D01*
X1532101Y1393215D01*
X1532170D01*
X1532853Y1393146D01*
X1533332D01*
X1533605Y1393215D01*
X1533673Y1393283D01*
X1533947Y1393693D01*
X1534084Y1394103D01*
Y1394513D01*
Y1394582D01*
Y1394650D01*
X1533947Y1395265D01*
X1533878Y1395812D01*
X1533742Y1396222D01*
Y1396290D01*
Y1396359D01*
X1533537Y1396974D01*
X1533263Y1397452D01*
X1533127Y1397794D01*
X1533058Y1397931D01*
X1532375Y1399161D01*
X1531760Y1400323D01*
X1531144Y1401417D01*
X1530598Y1402374D01*
X1530119Y1403194D01*
X1529777Y1403878D01*
X1529504Y1404288D01*
X1529436Y1404356D01*
Y1404424D01*
X1528752Y1405655D01*
X1528069Y1406817D01*
X1527385Y1407842D01*
X1526838Y1408867D01*
X1526360Y1409687D01*
X1526018Y1410302D01*
X1525745Y1410713D01*
X1525676Y1410781D01*
Y1410849D01*
X1525403Y1411396D01*
X1525130Y1411875D01*
X1524924Y1412216D01*
X1524856Y1412353D01*
X1524583Y1412900D01*
X1524378Y1413447D01*
X1524241Y1413788D01*
X1524173Y1413857D01*
Y1413925D01*
X1523967Y1414609D01*
X1523899Y1415224D01*
X1523967Y1415771D01*
X1524036Y1416249D01*
X1524173Y1416591D01*
X1524309Y1416864D01*
X1524378Y1417001D01*
X1524446Y1417069D01*
X1524856Y1417479D01*
X1525266Y1417753D01*
X1525813Y1417958D01*
X1526292Y1418094D01*
X1526702Y1418163D01*
X1527112Y1418231D01*
X1527453D01*
X1528410Y1418094D01*
D02*
G37*
G36*
X1418433Y1416386D02*
X1418980Y1415976D01*
X1419458Y1415565D01*
X1419868Y1415292D01*
X1420210Y1415087D01*
X1420415Y1414950D01*
X1420484Y1414882D01*
X1421646Y1414062D01*
X1422192Y1413652D01*
X1422671Y1413310D01*
X1423013Y1412968D01*
X1423354Y1412763D01*
X1423559Y1412626D01*
X1423628Y1412558D01*
X1423217Y1412421D01*
X1422944Y1412353D01*
X1422739Y1412285D01*
X1422671D01*
X1422329Y1412216D01*
X1422056Y1412080D01*
X1421850Y1412011D01*
X1421782D01*
X1422192Y1411465D01*
X1422534Y1411054D01*
X1422807Y1410781D01*
X1422876Y1410644D01*
X1423286Y1410166D01*
X1423559Y1409756D01*
X1423833Y1409482D01*
X1423901Y1409414D01*
X1423833Y1409346D01*
X1423764D01*
X1423696Y1409277D01*
Y1409209D01*
X1422397Y1409892D01*
X1421850Y1410234D01*
X1421304Y1410576D01*
X1420894Y1410849D01*
X1420484Y1410986D01*
X1420278Y1411123D01*
X1420210Y1411191D01*
X1418911Y1411943D01*
X1418296Y1412285D01*
X1417749Y1412626D01*
X1417271Y1412900D01*
X1416929Y1413105D01*
X1416656Y1413242D01*
X1416588Y1413310D01*
X1417066Y1413378D01*
X1417408Y1413447D01*
X1417613Y1413515D01*
X1417681D01*
X1418023Y1413583D01*
X1418296Y1413652D01*
X1418570Y1413720D01*
X1418638D01*
X1418365Y1414335D01*
X1418091Y1414882D01*
X1417955Y1415292D01*
X1417886Y1415361D01*
Y1415429D01*
X1417613Y1416044D01*
X1417408Y1416659D01*
X1417271Y1417138D01*
X1417203Y1417206D01*
Y1417274D01*
X1418433Y1416386D01*
D02*
G37*
G36*
X1446662Y1407295D02*
X1446730Y1407227D01*
X1446935Y1407022D01*
X1447004Y1406953D01*
X1448029Y1405996D01*
X1448986Y1405244D01*
X1449328Y1404971D01*
X1449669Y1404766D01*
X1449875Y1404698D01*
X1449943Y1404629D01*
X1451105Y1404014D01*
X1451652Y1403741D01*
X1452130Y1403536D01*
X1452540Y1403262D01*
X1452882Y1403126D01*
X1453087Y1403057D01*
X1453156Y1402989D01*
X1453429Y1402852D01*
X1453497Y1402784D01*
X1453702Y1402647D01*
X1453771Y1402579D01*
X1453702Y1402510D01*
Y1402442D01*
Y1402374D01*
Y1402305D01*
X1452950Y1402510D01*
X1452335Y1402647D01*
X1452062Y1402715D01*
X1451857Y1402784D01*
X1451720D01*
X1450968Y1402989D01*
X1450216Y1403194D01*
X1449943Y1403262D01*
X1449669D01*
X1449533Y1403331D01*
X1449465D01*
X1450216Y1402100D01*
X1450831Y1400938D01*
X1451447Y1399845D01*
X1451994Y1398888D01*
X1452472Y1398068D01*
X1452814Y1397452D01*
X1453019Y1397042D01*
X1453087Y1396974D01*
Y1396906D01*
X1453702Y1395744D01*
X1454317Y1394582D01*
X1454864Y1393556D01*
X1455343Y1392599D01*
X1455753Y1391779D01*
X1456026Y1391164D01*
X1456231Y1390754D01*
X1456300Y1390686D01*
Y1390617D01*
X1455479Y1390549D01*
X1454317D01*
X1453907Y1390617D01*
X1453634Y1390686D01*
X1453429D01*
X1453292Y1390754D01*
X1453019Y1390891D01*
X1452745Y1391164D01*
X1452267Y1391848D01*
X1452130Y1392189D01*
X1451994Y1392463D01*
X1451857Y1392668D01*
Y1392736D01*
X1451242Y1394035D01*
X1450627Y1395197D01*
X1449943Y1396222D01*
X1449328Y1397111D01*
X1448781Y1397863D01*
X1448302Y1398409D01*
X1448029Y1398751D01*
X1447892Y1398888D01*
X1446935Y1399845D01*
X1445979Y1400665D01*
X1445090Y1401417D01*
X1444201Y1402100D01*
X1443450Y1402715D01*
X1442903Y1403126D01*
X1442493Y1403399D01*
X1442356Y1403467D01*
X1442014Y1403672D01*
X1441672Y1403809D01*
X1441399Y1403946D01*
X1441331D01*
X1440921Y1404082D01*
X1440579Y1404219D01*
X1440305Y1404356D01*
X1440237D01*
X1439964Y1404424D01*
X1439690D01*
X1439485Y1404356D01*
X1439417D01*
X1439143Y1404219D01*
X1438938Y1404014D01*
X1438870Y1403809D01*
X1438802Y1403741D01*
X1438665Y1403331D01*
Y1403126D01*
Y1403057D01*
Y1402784D01*
X1438733Y1402579D01*
X1438802Y1402442D01*
Y1402374D01*
X1438938Y1402100D01*
X1439143Y1401964D01*
X1439348D01*
X1439827Y1402032D01*
X1440032Y1402100D01*
X1440715D01*
X1441262Y1402032D01*
X1441536Y1401964D01*
X1441672Y1401895D01*
X1442014Y1401622D01*
X1442219Y1401349D01*
X1442288Y1401075D01*
Y1401007D01*
X1442219Y1400460D01*
X1442083Y1400050D01*
X1441877Y1399776D01*
X1441809Y1399708D01*
X1441331Y1399366D01*
X1440852Y1399161D01*
X1440511Y1399025D01*
X1439690D01*
X1439280Y1399093D01*
X1439143Y1399161D01*
X1439075D01*
X1438597Y1399366D01*
X1438186Y1399571D01*
X1437503Y1400118D01*
X1437230Y1400323D01*
X1437025Y1400528D01*
X1436956Y1400665D01*
X1436888Y1400733D01*
X1436614Y1401143D01*
X1436341Y1401553D01*
X1436068Y1402374D01*
X1435999Y1402647D01*
X1435931Y1402921D01*
Y1403057D01*
Y1403126D01*
X1435999Y1403946D01*
X1436136Y1404493D01*
X1436341Y1404903D01*
X1436409Y1405039D01*
X1436888Y1405518D01*
X1437435Y1405791D01*
X1437913Y1405928D01*
X1438050Y1405996D01*
X1438118D01*
X1438597Y1406065D01*
X1439895D01*
X1440305Y1405996D01*
X1440579Y1405928D01*
X1440715D01*
X1441741Y1405586D01*
X1442629Y1405244D01*
X1443040Y1405108D01*
X1443313Y1404971D01*
X1443450Y1404903D01*
X1443518D01*
X1444475Y1404493D01*
X1445363Y1404082D01*
X1445705Y1403946D01*
X1445979Y1403809D01*
X1446184Y1403741D01*
X1446252D01*
X1446047Y1404219D01*
X1445842Y1404629D01*
X1445773Y1404903D01*
X1445705Y1404971D01*
X1445500Y1405450D01*
X1445295Y1405791D01*
X1445227Y1406065D01*
X1445158Y1406201D01*
Y1406543D01*
Y1406680D01*
Y1406748D01*
X1445227Y1406953D01*
X1445295Y1407090D01*
X1445363Y1407227D01*
X1445500Y1407295D01*
X1445637Y1407363D01*
X1446389D01*
X1446662Y1407295D01*
D02*
G37*
G36*
X1459170Y1416181D02*
X1459239D01*
X1459512Y1416112D01*
X1459717Y1415976D01*
X1459854Y1415907D01*
X1459922Y1415839D01*
X1460332Y1415497D01*
X1460401Y1415429D01*
X1460469Y1415361D01*
X1460811Y1414950D01*
X1461084Y1414609D01*
X1461221Y1414335D01*
X1461289Y1414267D01*
X1461631Y1413788D01*
X1461836Y1413447D01*
X1461973Y1413173D01*
X1462041Y1413036D01*
X1462383Y1412558D01*
X1462656Y1412216D01*
X1462861Y1412011D01*
X1462930Y1411943D01*
X1463340Y1411806D01*
X1463818Y1411738D01*
X1464160Y1411669D01*
X1465185D01*
X1465459Y1411601D01*
X1465595D01*
X1466074Y1411465D01*
X1466484Y1411328D01*
X1466757Y1411259D01*
X1466894Y1411191D01*
X1467099Y1411123D01*
X1467168Y1410918D01*
X1467304Y1410781D01*
Y1410713D01*
X1467578Y1410234D01*
X1467646Y1410097D01*
Y1410029D01*
X1467304Y1409824D01*
X1467236Y1409756D01*
X1467168D01*
X1466757Y1409619D01*
X1466689Y1409551D01*
X1466621D01*
X1466142Y1409482D01*
X1465800D01*
X1465527Y1409414D01*
X1464297D01*
X1463887Y1409346D01*
X1463750D01*
X1464365Y1408594D01*
X1464844Y1407979D01*
X1465117Y1407500D01*
X1465254Y1407432D01*
Y1407363D01*
X1465732Y1406680D01*
X1466142Y1406201D01*
X1466416Y1405860D01*
X1466552Y1405723D01*
X1467099Y1405176D01*
X1467646Y1404766D01*
X1468056Y1404493D01*
X1468124Y1404356D01*
X1468193D01*
X1468808Y1403946D01*
X1469286Y1403536D01*
X1469697Y1403262D01*
X1469765Y1403194D01*
X1469833D01*
X1470448Y1402852D01*
X1470995Y1402579D01*
X1471474Y1402374D01*
X1471542Y1402305D01*
X1471610D01*
X1472294Y1402032D01*
X1472841Y1401759D01*
X1473251Y1401553D01*
X1473319Y1401485D01*
X1473387D01*
X1473319Y1401349D01*
Y1401280D01*
X1473251Y1401212D01*
X1473182Y1401143D01*
X1472294Y1401349D01*
X1471474Y1401553D01*
X1471132Y1401622D01*
X1470858Y1401690D01*
X1470722Y1401759D01*
X1470653D01*
X1469697Y1401964D01*
X1468876Y1402237D01*
X1468535Y1402305D01*
X1468261Y1402374D01*
X1468056Y1402442D01*
X1467988D01*
X1468466Y1401349D01*
X1468740Y1400802D01*
X1468945Y1400392D01*
X1469081Y1400050D01*
X1469218Y1399776D01*
X1469355Y1399571D01*
Y1399503D01*
X1469765Y1398409D01*
X1470107Y1397521D01*
X1470243Y1397111D01*
X1470380Y1396837D01*
X1470448Y1396632D01*
Y1396564D01*
X1470653Y1395880D01*
X1470790Y1395334D01*
X1470927Y1394923D01*
Y1394855D01*
Y1394787D01*
X1470995Y1394103D01*
X1471064Y1393488D01*
Y1393010D01*
Y1392941D01*
Y1392873D01*
Y1392463D01*
X1470927Y1392053D01*
X1470653Y1391369D01*
X1470448Y1391096D01*
X1470312Y1390891D01*
X1470243Y1390822D01*
X1470175Y1390754D01*
X1469833Y1390481D01*
X1469491Y1390344D01*
X1468876Y1390070D01*
X1468603D01*
X1468398Y1390002D01*
X1467919D01*
X1467236Y1390070D01*
X1466621Y1390207D01*
X1466142Y1390276D01*
X1466074Y1390344D01*
X1466006D01*
X1465322Y1390617D01*
X1464775Y1390959D01*
X1464365Y1391164D01*
X1464297Y1391301D01*
X1464228D01*
X1463408Y1391984D01*
X1462793Y1392668D01*
X1462520Y1392941D01*
X1462315Y1393078D01*
X1462246Y1393215D01*
X1462178Y1393283D01*
X1461563Y1394172D01*
X1461084Y1394923D01*
X1460948Y1395265D01*
X1460811Y1395539D01*
X1460674Y1395675D01*
Y1395744D01*
X1460537Y1396154D01*
X1460469Y1396222D01*
Y1396290D01*
X1460401Y1396701D01*
X1460332Y1396769D01*
Y1396837D01*
X1460469Y1396906D01*
X1460537Y1396974D01*
X1460606Y1397042D01*
X1460674D01*
X1461153Y1396496D01*
X1461563Y1396017D01*
X1461836Y1395675D01*
X1461973Y1395607D01*
Y1395539D01*
X1462520Y1394992D01*
X1462998Y1394513D01*
X1463271Y1394172D01*
X1463408Y1394035D01*
X1463818Y1393625D01*
X1464160Y1393351D01*
X1464433Y1393078D01*
X1464570Y1393010D01*
X1464980Y1392668D01*
X1465390Y1392463D01*
X1465664Y1392326D01*
X1465800Y1392258D01*
X1466074Y1392121D01*
X1466347Y1392053D01*
X1466826D01*
X1467099Y1392121D01*
X1467236Y1392189D01*
X1467441Y1392326D01*
X1467578Y1392531D01*
X1467714Y1392941D01*
Y1393351D01*
Y1393420D01*
Y1393488D01*
X1467646Y1393967D01*
X1467509Y1394308D01*
X1467441Y1394582D01*
X1467373Y1394718D01*
X1467168Y1395197D01*
X1467031Y1395539D01*
X1466894Y1395812D01*
X1466826Y1395949D01*
X1466211Y1397247D01*
X1465937Y1397863D01*
X1465664Y1398341D01*
X1465459Y1398819D01*
X1465254Y1399161D01*
X1465185Y1399366D01*
X1465117Y1399435D01*
X1464433Y1400665D01*
X1464160Y1401280D01*
X1463887Y1401759D01*
X1463682Y1402237D01*
X1463477Y1402579D01*
X1463408Y1402784D01*
X1463340Y1402852D01*
X1462793Y1403878D01*
X1462315Y1404698D01*
X1462178Y1405039D01*
X1462041Y1405313D01*
X1461904Y1405450D01*
Y1405518D01*
X1461358Y1406543D01*
X1460948Y1407432D01*
X1460742Y1407773D01*
X1460674Y1408047D01*
X1460537Y1408184D01*
Y1408252D01*
X1460264Y1408730D01*
X1459991Y1409072D01*
X1459785Y1409277D01*
X1459717Y1409346D01*
X1459239Y1409551D01*
X1458829Y1409619D01*
X1458350D01*
X1457872Y1409551D01*
X1457120D01*
X1456641Y1409619D01*
X1455821D01*
X1455411Y1409687D01*
X1455138Y1409756D01*
X1454933Y1409824D01*
X1454864D01*
X1454591Y1410029D01*
X1454454Y1410371D01*
X1454386Y1410576D01*
Y1410713D01*
X1454454Y1411123D01*
X1454659Y1411328D01*
X1454796Y1411465D01*
X1454864Y1411533D01*
X1455206Y1411601D01*
X1455479Y1411669D01*
X1455685Y1411738D01*
X1455753D01*
X1456231Y1411806D01*
X1456641D01*
X1456915Y1411875D01*
X1457052D01*
X1457530Y1411943D01*
X1458008D01*
X1458350Y1412011D01*
X1458487D01*
X1458350Y1412353D01*
X1458214Y1412558D01*
X1458145Y1412695D01*
Y1412763D01*
X1458008Y1413173D01*
X1457940Y1413242D01*
Y1413310D01*
X1457735Y1413720D01*
X1457667Y1413857D01*
Y1413925D01*
X1457530Y1414335D01*
X1457462Y1414472D01*
Y1414540D01*
Y1415155D01*
X1457598Y1415634D01*
X1457803Y1415907D01*
X1457872Y1415976D01*
X1458077Y1416112D01*
X1458282Y1416181D01*
X1458760Y1416249D01*
X1459102D01*
X1459170Y1416181D01*
D02*
G37*
G36*
X1543174Y1418026D02*
X1544336Y1417890D01*
X1545498Y1417684D01*
X1546523Y1417411D01*
X1547344Y1417138D01*
X1548096Y1416864D01*
X1548642Y1416591D01*
X1548984Y1416454D01*
X1549121Y1416386D01*
X1550078Y1415839D01*
X1551035Y1415224D01*
X1551855Y1414609D01*
X1552607Y1414062D01*
X1553222Y1413515D01*
X1553700Y1413105D01*
X1553974Y1412832D01*
X1554111Y1412763D01*
X1554589Y1412216D01*
X1554999Y1411669D01*
X1555273Y1411259D01*
X1555341Y1411123D01*
Y1411054D01*
X1555751Y1410371D01*
X1556024Y1409756D01*
X1556298Y1409277D01*
X1556366Y1409209D01*
Y1409140D01*
X1556434Y1408799D01*
X1556503Y1408389D01*
Y1408184D01*
Y1408047D01*
Y1407637D01*
Y1407295D01*
X1556434Y1407022D01*
Y1406953D01*
X1556298Y1406407D01*
Y1405996D01*
X1556366Y1405723D01*
X1556434Y1405655D01*
X1556708Y1405450D01*
X1557050Y1405244D01*
X1557323Y1405108D01*
X1557391Y1405040D01*
X1557460D01*
X1558417Y1404629D01*
X1559237Y1404151D01*
X1559579Y1403946D01*
X1559852Y1403809D01*
X1559989Y1403741D01*
X1560057Y1403672D01*
X1560946Y1403057D01*
X1561629Y1402442D01*
X1561902Y1402169D01*
X1562039Y1401964D01*
X1562176Y1401827D01*
X1562244Y1401759D01*
X1562723Y1401212D01*
X1563133Y1400597D01*
X1563406Y1400050D01*
X1563680Y1399435D01*
X1564021Y1398341D01*
X1564158Y1397384D01*
Y1396496D01*
Y1395880D01*
X1564090Y1395607D01*
X1564021Y1395402D01*
Y1395334D01*
Y1395265D01*
X1563816Y1394650D01*
X1563543Y1394172D01*
X1562791Y1393215D01*
X1561971Y1392463D01*
X1561151Y1391848D01*
X1560331Y1391438D01*
X1559647Y1391096D01*
X1559373Y1391027D01*
X1559169Y1390959D01*
X1559100Y1390891D01*
X1559032D01*
X1558417Y1390686D01*
X1557870Y1390617D01*
X1557460Y1390481D01*
X1557323D01*
X1556708Y1390344D01*
X1556229Y1390276D01*
X1555888Y1390207D01*
X1555751D01*
X1554862Y1390139D01*
X1554111Y1390207D01*
X1553359D01*
X1552675Y1390276D01*
X1552128Y1390412D01*
X1551718Y1390481D01*
X1551445Y1390549D01*
X1551376D01*
X1550625Y1390822D01*
X1549941Y1391096D01*
X1549258Y1391438D01*
X1548711Y1391779D01*
X1548232Y1392053D01*
X1547890Y1392326D01*
X1547685Y1392463D01*
X1547617Y1392531D01*
X1547070Y1393078D01*
X1546660Y1393625D01*
X1546387Y1394172D01*
X1546250Y1394650D01*
X1546182Y1395060D01*
X1546113Y1395470D01*
Y1395675D01*
Y1395744D01*
X1546250Y1396427D01*
X1546455Y1397042D01*
X1546797Y1397589D01*
X1547139Y1397999D01*
X1547412Y1398341D01*
X1547685Y1398614D01*
X1547890Y1398751D01*
X1547959Y1398819D01*
X1548574Y1399161D01*
X1549189Y1399366D01*
X1549736Y1399571D01*
X1550283Y1399640D01*
X1550761Y1399708D01*
X1551445D01*
X1552128Y1399571D01*
X1552744Y1399366D01*
X1553290Y1399161D01*
X1553769Y1398888D01*
X1554111Y1398614D01*
X1554452Y1398409D01*
X1554589Y1398273D01*
X1554657Y1398204D01*
X1554931Y1397931D01*
X1555136Y1397589D01*
X1555409Y1397111D01*
X1555546Y1396701D01*
Y1396632D01*
Y1396564D01*
Y1396290D01*
Y1396017D01*
X1555341Y1395607D01*
X1555136Y1395265D01*
X1555067Y1395197D01*
X1554589Y1394923D01*
X1554179Y1394787D01*
X1553837Y1394718D01*
X1553700D01*
X1553085Y1394855D01*
X1552607Y1395128D01*
X1552265Y1395334D01*
X1552128Y1395470D01*
X1551855Y1395812D01*
X1551718Y1395949D01*
Y1396017D01*
X1551376Y1396359D01*
X1551308Y1396427D01*
X1551240D01*
X1550898Y1396496D01*
X1550625Y1396564D01*
X1550419Y1396632D01*
X1549873D01*
X1549736Y1396564D01*
X1549668D01*
X1549463Y1396359D01*
X1549326Y1396154D01*
X1549258Y1395949D01*
Y1395880D01*
Y1395539D01*
Y1395265D01*
X1549326Y1395128D01*
Y1395060D01*
X1549463Y1394650D01*
X1549668Y1394377D01*
X1549804Y1394103D01*
X1549873Y1394035D01*
X1550146Y1393693D01*
X1550419Y1393420D01*
X1550625Y1393215D01*
X1550693Y1393146D01*
X1551445Y1392736D01*
X1552197Y1392463D01*
X1552470Y1392394D01*
X1552675D01*
X1552812Y1392326D01*
X1552880D01*
X1553769Y1392189D01*
X1555273D01*
X1555956Y1392258D01*
X1556571Y1392463D01*
X1557118Y1392668D01*
X1557528Y1392873D01*
X1557870Y1393146D01*
X1558143Y1393351D01*
X1558280Y1393488D01*
X1558348Y1393556D01*
X1558690Y1394103D01*
X1558963Y1394650D01*
X1559169Y1395197D01*
X1559237Y1395744D01*
X1559305Y1396222D01*
Y1396564D01*
Y1396837D01*
Y1396906D01*
X1559100Y1398068D01*
X1558895Y1398546D01*
X1558758Y1398956D01*
X1558622Y1399298D01*
X1558485Y1399571D01*
X1558348Y1399708D01*
Y1399776D01*
X1557733Y1400665D01*
X1557050Y1401417D01*
X1556844Y1401690D01*
X1556640Y1401895D01*
X1556503Y1401964D01*
X1556434Y1402032D01*
X1555683Y1402579D01*
X1554999Y1402921D01*
X1554794Y1403057D01*
X1554589Y1403126D01*
X1554452Y1403194D01*
X1554384D01*
X1553974Y1403262D01*
X1553564D01*
X1552744Y1403126D01*
X1552402Y1403057D01*
X1552128Y1402989D01*
X1551992Y1402852D01*
X1551923D01*
X1551171Y1402511D01*
X1550488Y1402374D01*
X1550215Y1402305D01*
X1548984D01*
X1548301Y1402442D01*
X1548096Y1402511D01*
X1547890Y1402579D01*
X1547754Y1402647D01*
X1547685D01*
X1547344Y1402784D01*
X1547139Y1402989D01*
X1546797Y1403331D01*
X1546592Y1403604D01*
Y1403741D01*
Y1404014D01*
X1546660Y1404219D01*
X1547002Y1404698D01*
X1547275Y1404971D01*
X1547344Y1405108D01*
X1547412D01*
X1547890Y1405381D01*
X1548027Y1405518D01*
X1548096D01*
X1548437Y1405723D01*
X1548779Y1405860D01*
X1548984Y1405996D01*
X1549121Y1406065D01*
X1548711Y1406270D01*
X1548369Y1406407D01*
X1548164Y1406543D01*
X1548096D01*
X1547617Y1406817D01*
X1547412Y1406885D01*
X1547344D01*
X1546387Y1407363D01*
X1545498Y1407773D01*
X1545156Y1407979D01*
X1544883Y1408047D01*
X1544746Y1408184D01*
X1544678D01*
X1543721Y1408662D01*
X1542832Y1409140D01*
X1542559Y1409346D01*
X1542286Y1409482D01*
X1542149Y1409551D01*
X1542081Y1409619D01*
X1541534Y1409961D01*
X1541055Y1410371D01*
X1540714Y1410644D01*
X1540577Y1410781D01*
X1540098Y1411328D01*
X1539688Y1411875D01*
X1539483Y1412216D01*
X1539415Y1412285D01*
Y1412353D01*
X1539073Y1413173D01*
X1538936Y1413925D01*
X1538868Y1414609D01*
Y1415155D01*
X1538936Y1415634D01*
X1539005Y1415976D01*
X1539073Y1416181D01*
Y1416249D01*
X1539415Y1416796D01*
X1539962Y1417206D01*
X1540509Y1417548D01*
X1541124Y1417753D01*
X1541671Y1417958D01*
X1542149Y1418026D01*
X1542491Y1418094D01*
X1543106D01*
X1543174Y1418026D01*
D02*
G37*
G36*
X1420484Y1408115D02*
X1420894Y1408047D01*
X1421167Y1407979D01*
X1421235Y1407910D01*
X1421577Y1407773D01*
X1421919Y1407568D01*
X1422124Y1407500D01*
X1422192Y1407432D01*
X1423696Y1406611D01*
X1424379Y1406270D01*
X1424995Y1405996D01*
X1425473Y1405723D01*
X1425883Y1405518D01*
X1426157Y1405381D01*
X1426225Y1405313D01*
X1426977Y1404971D01*
X1427729Y1404766D01*
X1428481Y1404561D01*
X1429164Y1404424D01*
X1429711D01*
X1430189Y1404356D01*
X1430805D01*
X1430941Y1404288D01*
X1431078Y1404219D01*
X1431146Y1404151D01*
X1431283Y1404014D01*
X1431420Y1403878D01*
X1431488Y1403809D01*
Y1403741D01*
Y1403536D01*
Y1403331D01*
X1431420Y1403194D01*
Y1403126D01*
X1431283Y1402715D01*
X1431146Y1402647D01*
Y1402579D01*
X1430873Y1402442D01*
X1430600Y1402305D01*
X1430394Y1402237D01*
X1430326Y1402169D01*
X1429984Y1402100D01*
X1429643Y1402032D01*
X1429438Y1401964D01*
X1429369D01*
X1429096Y1401895D01*
X1427524D01*
X1427934Y1401143D01*
X1428207Y1400528D01*
X1428344Y1400255D01*
X1428481Y1400050D01*
X1428549Y1399981D01*
Y1399913D01*
X1428959Y1399161D01*
X1429232Y1398546D01*
X1429369Y1398273D01*
X1429506Y1398068D01*
X1429574Y1397999D01*
Y1397931D01*
X1429916Y1397111D01*
X1430189Y1396427D01*
X1430326Y1396154D01*
X1430394Y1395949D01*
X1430463Y1395812D01*
Y1395744D01*
X1430600Y1394923D01*
X1430668Y1394172D01*
Y1393830D01*
X1430600Y1393556D01*
Y1393420D01*
Y1393351D01*
X1430394Y1392599D01*
X1430121Y1392053D01*
X1429916Y1391643D01*
X1429779Y1391574D01*
Y1391506D01*
X1429232Y1391027D01*
X1428617Y1390754D01*
X1428276Y1390686D01*
X1428071Y1390617D01*
X1427934Y1390549D01*
X1427865D01*
X1427387Y1390481D01*
X1426977Y1390412D01*
X1426567D01*
X1426088Y1390481D01*
X1425747Y1390549D01*
X1425473Y1390617D01*
X1425336D01*
X1424516Y1390959D01*
X1423764Y1391301D01*
X1423081Y1391711D01*
X1422534Y1392053D01*
X1422056Y1392394D01*
X1421714Y1392668D01*
X1421509Y1392805D01*
X1421440Y1392873D01*
X1420347Y1394035D01*
X1419800Y1394650D01*
X1419390Y1395128D01*
X1419048Y1395607D01*
X1418706Y1395949D01*
X1418570Y1396222D01*
X1418501Y1396290D01*
X1418433Y1396632D01*
Y1396701D01*
Y1396769D01*
X1418501Y1397179D01*
Y1397247D01*
Y1397316D01*
X1418843Y1397247D01*
X1419048D01*
X1419253Y1397179D01*
X1419390Y1397111D01*
X1419527Y1397042D01*
X1419937Y1396701D01*
X1420210Y1396359D01*
X1420484Y1396085D01*
X1420552Y1396017D01*
X1420894Y1395675D01*
X1421235Y1395334D01*
X1421509Y1395128D01*
X1421577Y1395060D01*
X1422192Y1394582D01*
X1422671Y1394103D01*
X1423081Y1393830D01*
X1423149Y1393693D01*
X1423217D01*
X1423764Y1393215D01*
X1424311Y1392805D01*
X1424721Y1392531D01*
X1424790Y1392463D01*
X1424858D01*
X1425200Y1392326D01*
X1425473Y1392258D01*
X1425952D01*
X1426225Y1392326D01*
X1426362Y1392394D01*
X1426703Y1392805D01*
X1426840Y1393283D01*
X1426909Y1393693D01*
Y1393761D01*
Y1393830D01*
X1426840Y1394172D01*
X1426772Y1394513D01*
X1426703Y1394718D01*
Y1394787D01*
X1426567Y1395060D01*
X1426498Y1395334D01*
X1426362Y1395539D01*
Y1395607D01*
X1425747Y1396837D01*
X1425473Y1397452D01*
X1425200Y1397931D01*
X1424995Y1398409D01*
X1424790Y1398751D01*
X1424721Y1398956D01*
X1424653Y1399025D01*
X1423969Y1400255D01*
X1423696Y1400802D01*
X1423423Y1401280D01*
X1423217Y1401690D01*
X1423013Y1402032D01*
X1422944Y1402237D01*
X1422876Y1402305D01*
X1422329Y1403399D01*
X1421850Y1404288D01*
X1421714Y1404698D01*
X1421577Y1404971D01*
X1421440Y1405176D01*
Y1405244D01*
X1420894Y1406338D01*
X1420415Y1407227D01*
X1420278Y1407637D01*
X1420142Y1407910D01*
X1420005Y1408115D01*
Y1408184D01*
X1420484Y1408115D01*
D02*
G37*
G36*
X1399363Y1408252D02*
X1399568D01*
X1399773Y1408184D01*
X1399978D01*
X1400798Y1408047D01*
X1401550Y1407842D01*
X1402165Y1407637D01*
X1402780Y1407363D01*
X1403259Y1407158D01*
X1403601Y1406953D01*
X1403874Y1406817D01*
X1403943Y1406748D01*
X1405241Y1405791D01*
X1405856Y1405313D01*
X1406335Y1404903D01*
X1406745Y1404561D01*
X1407087Y1404288D01*
X1407292Y1404082D01*
X1407360Y1404014D01*
X1408112Y1403331D01*
X1408727Y1402715D01*
X1409001Y1402442D01*
X1409205Y1402237D01*
X1409274Y1402169D01*
X1409342Y1402100D01*
X1410162Y1401485D01*
X1410914Y1401075D01*
X1411188Y1400938D01*
X1411461Y1400802D01*
X1411598Y1400733D01*
X1411666D01*
X1412145Y1400528D01*
X1412486Y1400460D01*
X1412760Y1400323D01*
X1412897D01*
X1413307Y1400186D01*
X1413648Y1400050D01*
X1413922Y1399981D01*
X1414059Y1399913D01*
Y1399776D01*
Y1399708D01*
Y1399571D01*
Y1399503D01*
X1413580Y1399435D01*
X1413102Y1399366D01*
X1412828Y1399298D01*
X1412691D01*
X1412145Y1399230D01*
X1411666Y1399161D01*
X1411393Y1399093D01*
X1411256D01*
X1411393Y1398478D01*
X1411461Y1397931D01*
X1411530Y1397589D01*
X1411598Y1397521D01*
Y1397452D01*
X1411734Y1396906D01*
X1411803Y1396427D01*
X1411871Y1396085D01*
Y1396017D01*
Y1395949D01*
Y1395265D01*
X1411803Y1394582D01*
X1411666Y1393967D01*
X1411530Y1393488D01*
X1411393Y1393078D01*
X1411188Y1392805D01*
X1411119Y1392599D01*
X1411051Y1392531D01*
X1410641Y1392121D01*
X1410162Y1391711D01*
X1409205Y1391164D01*
X1408795Y1390959D01*
X1408454Y1390822D01*
X1408249Y1390686D01*
X1408180D01*
X1407087Y1390481D01*
X1405925Y1390412D01*
X1404899Y1390549D01*
X1403943Y1390754D01*
X1403122Y1391027D01*
X1402439Y1391232D01*
X1402029Y1391438D01*
X1401960Y1391506D01*
X1401892D01*
X1400798Y1392121D01*
X1399841Y1392873D01*
X1399090Y1393693D01*
X1398543Y1394445D01*
X1398133Y1395197D01*
X1397859Y1395744D01*
X1397722Y1396154D01*
X1397654Y1396222D01*
Y1396290D01*
X1398338Y1395812D01*
X1398884Y1395402D01*
X1399226Y1395128D01*
X1399295Y1394992D01*
X1399363D01*
X1399910Y1394513D01*
X1400388Y1394172D01*
X1400730Y1393898D01*
X1400798Y1393830D01*
X1400867D01*
X1401482Y1393488D01*
X1402029Y1393146D01*
X1402439Y1392873D01*
X1402507Y1392805D01*
X1402575D01*
X1403259Y1392531D01*
X1403806Y1392326D01*
X1404284Y1392258D01*
X1404353Y1392189D01*
X1404421D01*
X1405036Y1392121D01*
X1405583Y1392053D01*
X1406061Y1392121D01*
X1406403Y1392189D01*
X1406676Y1392326D01*
X1406950Y1392394D01*
X1407018Y1392531D01*
X1407087D01*
X1407360Y1392873D01*
X1407497Y1393351D01*
X1407702Y1394240D01*
Y1394650D01*
Y1394992D01*
Y1395197D01*
Y1395265D01*
X1407428Y1396427D01*
X1407292Y1396974D01*
X1407087Y1397452D01*
X1406950Y1397794D01*
X1406882Y1398068D01*
X1406745Y1398273D01*
Y1398341D01*
X1406198Y1399366D01*
X1405720Y1400255D01*
X1405515Y1400665D01*
X1405378Y1400938D01*
X1405309Y1401075D01*
X1405241Y1401143D01*
X1404694Y1402032D01*
X1404216Y1402715D01*
X1404011Y1402989D01*
X1403874Y1403194D01*
X1403806Y1403331D01*
X1403737Y1403399D01*
X1403054Y1404151D01*
X1402370Y1404766D01*
X1402029Y1404971D01*
X1401824Y1405108D01*
X1401687Y1405244D01*
X1401618D01*
X1401003Y1405518D01*
X1400457Y1405791D01*
X1400115Y1405928D01*
X1400046Y1405996D01*
X1399978D01*
X1399295Y1406270D01*
X1398748Y1406407D01*
X1398338Y1406543D01*
X1398269Y1406611D01*
X1397791D01*
X1397654Y1406543D01*
X1397586D01*
X1397176Y1406406D01*
X1397039Y1406338D01*
X1396971D01*
X1397176Y1405996D01*
X1397244Y1405860D01*
Y1405791D01*
X1397381Y1405450D01*
X1397449Y1405313D01*
X1397517Y1405244D01*
X1397928Y1404766D01*
X1398064Y1404629D01*
X1398133Y1404561D01*
X1398543Y1404082D01*
X1398679Y1403878D01*
X1398748Y1403809D01*
X1398884Y1403399D01*
X1399021Y1403057D01*
X1399090Y1402784D01*
Y1402647D01*
X1399021Y1402237D01*
X1398884Y1401895D01*
X1398679Y1401622D01*
X1398611Y1401553D01*
X1398269Y1401348D01*
X1397928Y1401212D01*
X1397654Y1401143D01*
X1397586D01*
X1397176Y1401212D01*
X1396834Y1401280D01*
X1396561Y1401348D01*
X1396492Y1401417D01*
X1396082Y1401690D01*
X1395740Y1401895D01*
X1395535Y1402032D01*
X1395467Y1402100D01*
X1395125Y1402374D01*
X1394783Y1402647D01*
X1394578Y1402852D01*
X1394510Y1402921D01*
X1394168Y1403331D01*
X1393963Y1403741D01*
X1393690Y1404493D01*
X1393621Y1404766D01*
X1393553Y1404971D01*
Y1405108D01*
Y1405176D01*
Y1405450D01*
Y1405723D01*
X1393621Y1405928D01*
Y1405996D01*
X1393826Y1406611D01*
X1394168Y1407022D01*
X1394578Y1407432D01*
X1394988Y1407705D01*
X1395399Y1407910D01*
X1395672Y1408047D01*
X1395945Y1408115D01*
X1396014D01*
X1396697Y1408252D01*
X1397312Y1408320D01*
X1398679Y1408320D01*
X1399363Y1408252D01*
D02*
G37*
G36*
X1505171Y1407910D02*
X1505649Y1407842D01*
X1505991Y1407773D01*
X1506128D01*
X1507221Y1407500D01*
X1508247Y1407158D01*
X1509204Y1406748D01*
X1510024Y1406338D01*
X1510707Y1405996D01*
X1511186Y1405723D01*
X1511459Y1405518D01*
X1511596Y1405450D01*
X1512416Y1404834D01*
X1513236Y1404082D01*
X1513920Y1403399D01*
X1514535Y1402784D01*
X1515082Y1402169D01*
X1515424Y1401690D01*
X1515697Y1401417D01*
X1515765Y1401280D01*
X1516039Y1400938D01*
X1516312Y1400665D01*
X1516722Y1400323D01*
X1517064Y1400186D01*
X1517132Y1400118D01*
X1517679D01*
X1518294Y1400255D01*
X1518568Y1400323D01*
X1518773Y1400392D01*
X1518909Y1400460D01*
X1518978D01*
X1519456Y1400665D01*
X1519866Y1400870D01*
X1520140Y1401007D01*
X1520276Y1401075D01*
X1520755Y1401280D01*
X1521234Y1401417D01*
X1521575Y1401553D01*
X1521644Y1401622D01*
X1521712D01*
X1521507Y1401075D01*
X1521234Y1400733D01*
X1521028Y1400460D01*
X1520960Y1400392D01*
X1520550Y1400050D01*
X1520208Y1399776D01*
X1519935Y1399640D01*
X1519866Y1399571D01*
X1519456Y1399366D01*
X1519115Y1399161D01*
X1518841Y1399025D01*
X1518705Y1398956D01*
X1518294Y1398751D01*
X1518089Y1398546D01*
X1517953Y1398341D01*
X1517884Y1398273D01*
X1517816Y1397863D01*
Y1397521D01*
X1517884Y1397247D01*
X1517953Y1397111D01*
X1518089Y1396632D01*
X1518226Y1396290D01*
X1518294Y1396017D01*
Y1395880D01*
X1518363Y1395128D01*
X1518294Y1394377D01*
X1518158Y1393761D01*
X1518021Y1393215D01*
X1517884Y1392736D01*
X1517679Y1392394D01*
X1517611Y1392189D01*
X1517543Y1392121D01*
X1517064Y1391574D01*
X1516586Y1391096D01*
X1515970Y1390822D01*
X1515424Y1390549D01*
X1514877Y1390412D01*
X1514467Y1390344D01*
X1514193Y1390276D01*
X1513783D01*
X1513647Y1390207D01*
X1513373Y1390139D01*
X1512348D01*
X1511459Y1390207D01*
X1510639Y1390412D01*
X1509955Y1390549D01*
X1509409Y1390754D01*
X1508930Y1390959D01*
X1508657Y1391027D01*
X1508588Y1391096D01*
X1507153Y1392053D01*
X1506470Y1392463D01*
X1505923Y1392941D01*
X1505444Y1393351D01*
X1505103Y1393625D01*
X1504897Y1393830D01*
X1504829Y1393898D01*
X1504897Y1394103D01*
X1504966Y1394172D01*
X1505034Y1394308D01*
Y1394377D01*
X1505513Y1394103D01*
X1505991Y1393898D01*
X1506333Y1393761D01*
X1506401Y1393693D01*
X1506470D01*
X1506948Y1393420D01*
X1507426Y1393215D01*
X1507700Y1393078D01*
X1507837Y1393010D01*
X1508520Y1392668D01*
X1509204Y1392394D01*
X1509409Y1392326D01*
X1509614Y1392258D01*
X1509750Y1392189D01*
X1509819D01*
X1510571Y1391984D01*
X1511254Y1391848D01*
X1511528Y1391779D01*
X1511938D01*
X1512621Y1391916D01*
X1513100Y1392053D01*
X1513441Y1392258D01*
X1513510Y1392326D01*
X1513647Y1392463D01*
X1513783Y1392668D01*
X1513920Y1393146D01*
X1513988Y1393556D01*
Y1393693D01*
Y1393761D01*
Y1394240D01*
X1513920Y1394718D01*
X1513851Y1394992D01*
Y1395128D01*
X1513715Y1395675D01*
X1513647Y1396154D01*
X1513578Y1396427D01*
Y1396564D01*
X1513441Y1397111D01*
X1513236Y1397521D01*
X1513100Y1397726D01*
X1513031Y1397794D01*
X1512553Y1397999D01*
X1512143Y1398068D01*
X1511801Y1398136D01*
X1509819D01*
X1509340Y1398204D01*
X1508930Y1398273D01*
X1508588Y1398341D01*
X1508383Y1398409D01*
X1508315D01*
X1507153Y1398751D01*
X1506606Y1398956D01*
X1506128Y1399093D01*
X1505718Y1399298D01*
X1505444Y1399366D01*
X1505239Y1399503D01*
X1505171D01*
X1504419Y1399845D01*
X1503736Y1400186D01*
X1503462Y1400392D01*
X1503257Y1400460D01*
X1503120Y1400597D01*
X1503052D01*
X1502300Y1401075D01*
X1501685Y1401485D01*
X1501412Y1401690D01*
X1501207Y1401827D01*
X1501138Y1401964D01*
X1501070D01*
X1500523Y1402510D01*
X1500113Y1403057D01*
X1499839Y1403536D01*
X1499771Y1403604D01*
Y1403672D01*
X1499703Y1404082D01*
X1499634Y1404424D01*
X1499703Y1405176D01*
Y1405450D01*
X1499771Y1405655D01*
X1499839Y1405791D01*
Y1405860D01*
X1500181Y1406611D01*
X1500660Y1407090D01*
X1501001Y1407432D01*
X1501070Y1407500D01*
X1501138D01*
X1501822Y1407773D01*
X1502505Y1407910D01*
X1502710D01*
X1502915Y1407979D01*
X1504624D01*
X1505171Y1407910D01*
D02*
G37*
G36*
X1482068Y1408047D02*
X1483025Y1407910D01*
X1483914Y1407773D01*
X1484666Y1407568D01*
X1485281Y1407295D01*
X1485759Y1407158D01*
X1486033Y1407022D01*
X1486169Y1406953D01*
X1487741Y1405928D01*
X1488425Y1405450D01*
X1489040Y1404971D01*
X1489518Y1404561D01*
X1489928Y1404219D01*
X1490202Y1403946D01*
X1490270Y1403878D01*
X1491364Y1402852D01*
X1492321Y1402032D01*
X1492731Y1401759D01*
X1493004Y1401485D01*
X1493209Y1401349D01*
X1493278Y1401280D01*
X1494508Y1400597D01*
X1495123Y1400323D01*
X1495670Y1400118D01*
X1496149Y1399913D01*
X1496490Y1399776D01*
X1496764Y1399708D01*
X1496832D01*
X1496900Y1399640D01*
X1496969Y1399571D01*
X1497037Y1399503D01*
X1497105Y1399366D01*
X1497174Y1399298D01*
Y1399230D01*
X1496559Y1399161D01*
X1496080Y1399093D01*
X1495807Y1399025D01*
X1495670D01*
X1495192Y1398956D01*
X1494781Y1398888D01*
X1494508Y1398819D01*
X1494371D01*
X1494508Y1398136D01*
X1494576Y1397521D01*
X1494645Y1397042D01*
X1494713Y1396974D01*
Y1396906D01*
X1494781Y1396222D01*
X1494850Y1395675D01*
X1494918Y1395265D01*
Y1395197D01*
Y1395128D01*
Y1394445D01*
X1494781Y1393898D01*
X1494645Y1393420D01*
X1494440Y1392941D01*
X1494303Y1392668D01*
X1494098Y1392394D01*
X1494030Y1392258D01*
X1493961Y1392189D01*
X1493551Y1391711D01*
X1493073Y1391369D01*
X1492594Y1391027D01*
X1492184Y1390822D01*
X1491774Y1390617D01*
X1491432Y1390481D01*
X1491227Y1390412D01*
X1491159D01*
X1489928Y1390207D01*
X1488766D01*
X1487673Y1390276D01*
X1486716Y1390549D01*
X1485964Y1390754D01*
X1485349Y1391027D01*
X1484939Y1391232D01*
X1484802Y1391301D01*
X1483708Y1391916D01*
X1482820Y1392668D01*
X1482137Y1393420D01*
X1481590Y1394172D01*
X1481180Y1394787D01*
X1480974Y1395334D01*
X1480838Y1395675D01*
X1480769Y1395812D01*
X1481726Y1395128D01*
X1482547Y1394582D01*
X1482888Y1394377D01*
X1483162Y1394172D01*
X1483298Y1394103D01*
X1483367Y1394035D01*
X1484324Y1393420D01*
X1485144Y1392941D01*
X1485486Y1392736D01*
X1485759Y1392599D01*
X1485896Y1392463D01*
X1485964D01*
X1486374Y1392258D01*
X1486716Y1392189D01*
X1486989Y1392053D01*
X1487058D01*
X1487536Y1391984D01*
X1488015Y1391848D01*
X1488288Y1391779D01*
X1488903D01*
X1489245Y1391848D01*
X1489518Y1391916D01*
X1489587Y1391984D01*
X1489928Y1392258D01*
X1490134Y1392531D01*
X1490270Y1392736D01*
X1490339Y1392805D01*
X1490475Y1393215D01*
X1490544Y1393556D01*
X1490612Y1393830D01*
Y1393898D01*
X1490680Y1394308D01*
Y1394650D01*
X1490612Y1394923D01*
Y1394992D01*
X1490407Y1395949D01*
X1490134Y1396906D01*
X1489860Y1397726D01*
X1489518Y1398478D01*
X1489313Y1399093D01*
X1489108Y1399503D01*
X1488972Y1399845D01*
X1488903Y1399913D01*
X1488425Y1400733D01*
X1487878Y1401485D01*
X1487399Y1402237D01*
X1486921Y1402852D01*
X1486443Y1403331D01*
X1486101Y1403741D01*
X1485896Y1404014D01*
X1485827Y1404082D01*
X1485144Y1404698D01*
X1484529Y1405108D01*
X1484255Y1405313D01*
X1484050Y1405450D01*
X1483914Y1405518D01*
X1483845D01*
X1483025Y1405860D01*
X1482273Y1406133D01*
X1482000Y1406201D01*
X1481726D01*
X1481590Y1406270D01*
X1480974D01*
X1480838Y1406201D01*
X1480769D01*
X1480496Y1406133D01*
X1480223D01*
X1480018Y1406065D01*
X1479949D01*
X1480223Y1405655D01*
X1480291Y1405518D01*
Y1405450D01*
X1480564Y1405039D01*
X1480633Y1404903D01*
Y1404834D01*
X1480906Y1404424D01*
X1481111Y1404082D01*
X1481316Y1403809D01*
X1481385Y1403741D01*
X1481658Y1403331D01*
X1481863Y1402989D01*
X1481931Y1402715D01*
X1482000Y1402579D01*
X1482068Y1402237D01*
X1482000Y1401964D01*
X1481931Y1401553D01*
X1481726Y1401280D01*
X1481658Y1401212D01*
X1481180Y1401007D01*
X1480701Y1400938D01*
X1480154D01*
X1479949Y1401007D01*
X1479812Y1401075D01*
X1479539Y1401143D01*
X1479471D01*
X1478514Y1401759D01*
X1477830Y1402374D01*
X1477557Y1402647D01*
X1477352Y1402852D01*
X1477283Y1402989D01*
X1477215Y1403057D01*
X1476942Y1403536D01*
X1476805Y1403946D01*
X1476668Y1404356D01*
X1476600Y1404698D01*
Y1405039D01*
X1476668Y1405244D01*
Y1405381D01*
Y1405450D01*
X1476805Y1405928D01*
X1477010Y1406338D01*
X1477489Y1407022D01*
X1477899Y1407363D01*
X1478035Y1407500D01*
X1478104D01*
X1478514Y1407705D01*
X1478992Y1407842D01*
X1479949Y1408047D01*
X1480359Y1408115D01*
X1481043D01*
X1482068Y1408047D01*
D02*
G37*
%LPC*%
G36*
X1599154Y1445572D02*
X1597992Y1445504D01*
X1597035Y1445367D01*
X1596215Y1445162D01*
X1595600Y1444957D01*
X1595190Y1444820D01*
X1595053Y1444752D01*
X1594028Y1444205D01*
X1593071Y1443521D01*
X1592251Y1442838D01*
X1591499Y1442086D01*
X1590952Y1441471D01*
X1590542Y1440924D01*
X1590268Y1440582D01*
X1590200Y1440514D01*
Y1440446D01*
X1589927Y1439899D01*
X1589722Y1439352D01*
X1589585Y1438873D01*
X1589516Y1438395D01*
Y1438053D01*
Y1437780D01*
X1589585Y1437575D01*
Y1437506D01*
X1589722Y1436960D01*
X1589995Y1436550D01*
X1590268Y1436208D01*
X1590542Y1435866D01*
X1590815Y1435661D01*
X1591020Y1435524D01*
X1591157Y1435388D01*
X1591225D01*
X1591635Y1435182D01*
X1592045Y1435046D01*
X1592797Y1434977D01*
X1593071D01*
X1593276Y1435046D01*
X1593481D01*
X1593891Y1435182D01*
X1594301Y1435388D01*
X1594848Y1435798D01*
X1595258Y1436208D01*
X1595326Y1436276D01*
X1595395Y1436344D01*
X1595668Y1436823D01*
X1595941Y1437233D01*
X1596147Y1437506D01*
X1596215Y1437643D01*
X1596557Y1438121D01*
X1596830Y1438532D01*
X1597035Y1438805D01*
X1597103Y1438873D01*
X1597582Y1439420D01*
X1598060Y1439830D01*
X1598470Y1440104D01*
X1598539Y1440172D01*
X1598607D01*
X1598949Y1440309D01*
X1599222Y1440377D01*
X1599838Y1440446D01*
X1600248D01*
X1600384Y1440377D01*
X1600453D01*
X1601273Y1440035D01*
X1601888Y1439625D01*
X1602230Y1439283D01*
X1602367Y1439215D01*
Y1439147D01*
X1602845Y1438532D01*
X1603118Y1437848D01*
X1603187Y1437575D01*
X1603255Y1437301D01*
X1603324Y1437165D01*
Y1437096D01*
X1603392Y1436344D01*
Y1435729D01*
X1603324Y1435251D01*
X1603255Y1435182D01*
Y1435114D01*
X1602982Y1434362D01*
X1602708Y1433747D01*
X1602435Y1433337D01*
X1602367Y1433269D01*
Y1433200D01*
X1601546Y1432175D01*
X1600589Y1431355D01*
X1599633Y1430671D01*
X1598744Y1430056D01*
X1597855Y1429646D01*
X1597172Y1429373D01*
X1596898Y1429236D01*
X1596693Y1429167D01*
X1596625Y1429099D01*
X1596557D01*
X1595805Y1428894D01*
X1595121Y1428757D01*
X1593754D01*
X1592524Y1428894D01*
X1591430Y1429099D01*
X1590473Y1429441D01*
X1589790Y1429714D01*
X1589516Y1429851D01*
X1589312Y1429988D01*
X1589243Y1430056D01*
X1589175D01*
X1588765Y1430261D01*
X1588628Y1430398D01*
X1588560D01*
X1588150Y1430603D01*
X1588013Y1430671D01*
X1587944D01*
X1587466Y1429646D01*
X1587056Y1428757D01*
X1586851Y1428347D01*
X1586783Y1428074D01*
X1586646Y1427937D01*
Y1427869D01*
X1586167Y1426912D01*
X1585757Y1426092D01*
X1585621Y1425750D01*
X1585484Y1425477D01*
X1585415Y1425340D01*
Y1425271D01*
X1585279Y1424930D01*
Y1424793D01*
Y1424725D01*
Y1424520D01*
Y1424315D01*
X1585347Y1424246D01*
Y1424178D01*
X1585826Y1423289D01*
X1586167Y1422469D01*
X1586372Y1422127D01*
X1586441Y1421854D01*
X1586577Y1421717D01*
Y1421649D01*
X1587056Y1420692D01*
X1587534Y1419803D01*
X1587671Y1419462D01*
X1587808Y1419188D01*
X1587944Y1419052D01*
Y1418983D01*
X1588218Y1419393D01*
X1588423Y1419735D01*
X1588560Y1419940D01*
X1588628Y1420008D01*
X1588833Y1420350D01*
X1589038Y1420624D01*
X1589175Y1420829D01*
X1589243Y1420897D01*
X1589790Y1421581D01*
X1590268Y1422196D01*
X1590815Y1422811D01*
X1591225Y1423289D01*
X1591635Y1423631D01*
X1591977Y1423904D01*
X1592182Y1424109D01*
X1592251Y1424178D01*
X1592934Y1424656D01*
X1593618Y1425066D01*
X1594301Y1425340D01*
X1594916Y1425613D01*
X1595463Y1425818D01*
X1595873Y1425955D01*
X1596147Y1426023D01*
X1596283D01*
X1597309Y1426228D01*
X1599086D01*
X1599564Y1426092D01*
X1600043Y1425955D01*
X1600863Y1425545D01*
X1601136Y1425340D01*
X1601410Y1425135D01*
X1601546Y1425066D01*
X1601615Y1424998D01*
X1602298Y1424315D01*
X1602777Y1423631D01*
X1602913Y1423289D01*
X1603050Y1423084D01*
X1603118Y1422948D01*
Y1422879D01*
X1603324Y1421922D01*
X1603392Y1421102D01*
Y1420760D01*
X1603324Y1420487D01*
Y1420282D01*
Y1420213D01*
X1603187Y1419735D01*
X1602982Y1419256D01*
X1602708Y1418915D01*
X1602435Y1418641D01*
X1602025Y1418231D01*
X1601888Y1418163D01*
X1601820Y1418095D01*
X1601341Y1417890D01*
X1600863Y1417753D01*
X1600043Y1417684D01*
X1599701Y1417753D01*
X1599427D01*
X1599291Y1417821D01*
X1599222D01*
X1598881Y1417958D01*
X1598812Y1418026D01*
X1598744D01*
X1598470Y1418163D01*
X1598334Y1418231D01*
X1597582Y1418505D01*
X1596830Y1418641D01*
X1596147D01*
X1595463Y1418573D01*
X1594916Y1418505D01*
X1594506Y1418368D01*
X1594164Y1418300D01*
X1594096Y1418231D01*
X1593276Y1417821D01*
X1592592Y1417343D01*
X1592045Y1416864D01*
X1591635Y1416386D01*
X1591294Y1415976D01*
X1591089Y1415634D01*
X1591020Y1415429D01*
X1590952Y1415361D01*
X1590610Y1414609D01*
X1590405Y1413925D01*
X1590337Y1413652D01*
X1590268Y1413447D01*
X1590200Y1413310D01*
Y1413242D01*
X1590063Y1412421D01*
Y1411738D01*
Y1411396D01*
Y1411191D01*
Y1411054D01*
Y1410986D01*
X1590200Y1410166D01*
X1590405Y1409482D01*
X1590747Y1408867D01*
X1591157Y1408320D01*
X1591499Y1407979D01*
X1591841Y1407637D01*
X1592045Y1407500D01*
X1592114Y1407432D01*
X1592866Y1407090D01*
X1593549Y1406885D01*
X1594848D01*
X1595395Y1406953D01*
X1595873Y1407090D01*
X1596147Y1407158D01*
X1596215Y1407227D01*
X1596693Y1407500D01*
X1597172Y1407705D01*
X1597445Y1407910D01*
X1597582Y1407979D01*
X1598129Y1408320D01*
X1598539Y1408594D01*
X1598812Y1408867D01*
X1598949Y1408936D01*
X1600589Y1410302D01*
X1602025Y1411738D01*
X1603392Y1413105D01*
X1604485Y1414404D01*
X1605442Y1415497D01*
X1605784Y1415976D01*
X1606126Y1416386D01*
X1606331Y1416659D01*
X1606536Y1416933D01*
X1606604Y1417069D01*
X1606673Y1417138D01*
X1607766Y1418915D01*
X1608655Y1420692D01*
X1609407Y1422401D01*
X1610022Y1424041D01*
X1610227Y1424725D01*
X1610500Y1425408D01*
X1610637Y1426023D01*
X1610774Y1426502D01*
X1610910Y1426912D01*
X1610979Y1427185D01*
X1611047Y1427390D01*
Y1427459D01*
X1611252Y1428484D01*
X1611389Y1429509D01*
X1611457Y1430466D01*
X1611526Y1431355D01*
Y1432107D01*
X1611457Y1432653D01*
Y1432995D01*
Y1433132D01*
X1611321Y1434157D01*
X1611116Y1435114D01*
X1610842Y1436071D01*
X1610569Y1436891D01*
X1610295Y1437575D01*
X1610022Y1438053D01*
X1609885Y1438395D01*
X1609817Y1438532D01*
X1609270Y1439420D01*
X1608792Y1440240D01*
X1608245Y1440924D01*
X1607698Y1441608D01*
X1607288Y1442086D01*
X1606946Y1442496D01*
X1606673Y1442769D01*
X1606604Y1442838D01*
X1605853Y1443453D01*
X1605032Y1444000D01*
X1604280Y1444410D01*
X1603528Y1444752D01*
X1602845Y1444957D01*
X1602367Y1445162D01*
X1602025Y1445298D01*
X1601888D01*
X1600453Y1445504D01*
X1599154Y1445572D01*
D02*
G37*
G36*
X1576735Y1424793D02*
X1576461D01*
X1575846Y1424725D01*
X1575299Y1424588D01*
X1574889Y1424451D01*
X1574479Y1424246D01*
X1574206Y1424109D01*
X1574001Y1423904D01*
X1573864Y1423836D01*
X1573796Y1423768D01*
X1573591Y1423358D01*
X1573522Y1423084D01*
Y1422811D01*
Y1422742D01*
X1573727Y1422469D01*
X1573932Y1422196D01*
X1574206Y1422127D01*
X1574274Y1422059D01*
X1574753Y1421991D01*
X1575163Y1421922D01*
X1576051Y1422059D01*
X1576393Y1422127D01*
X1576666Y1422196D01*
X1576871Y1422264D01*
X1576940D01*
X1577897Y1422742D01*
X1578649Y1423289D01*
X1578922Y1423494D01*
X1579127Y1423699D01*
X1579195Y1423836D01*
X1579264Y1423904D01*
X1578854Y1424178D01*
X1578375Y1424451D01*
X1577418Y1424656D01*
X1577077Y1424725D01*
X1576735Y1424793D01*
D02*
G37*
G36*
X1586987Y1405381D02*
X1585962Y1404766D01*
X1585074Y1404219D01*
X1584732Y1404014D01*
X1584458Y1403809D01*
X1584322Y1403741D01*
X1584253Y1403672D01*
X1583228Y1402989D01*
X1582340Y1402442D01*
X1581998Y1402237D01*
X1581724Y1402032D01*
X1581588Y1401964D01*
X1581519Y1401895D01*
X1582271Y1401143D01*
X1583023Y1400392D01*
X1583297Y1400118D01*
X1583570Y1399845D01*
X1583707Y1399708D01*
X1583775Y1399640D01*
X1584664Y1398751D01*
X1585415Y1397999D01*
X1585689Y1397726D01*
X1585962Y1397453D01*
X1586099Y1397316D01*
X1586167Y1397247D01*
X1586441Y1397042D01*
X1586646Y1396974D01*
X1586851D01*
X1587261Y1397247D01*
X1587398Y1397316D01*
X1587466Y1397384D01*
X1588354Y1398273D01*
X1589106Y1398956D01*
X1589380Y1399298D01*
X1589653Y1399503D01*
X1589790Y1399640D01*
X1589858Y1399708D01*
X1590747Y1400597D01*
X1591635Y1401417D01*
X1591977Y1401759D01*
X1592251Y1402032D01*
X1592387Y1402169D01*
X1592456Y1402237D01*
X1591772Y1402374D01*
X1591157Y1402579D01*
X1590610Y1402715D01*
X1590132Y1402921D01*
X1589722Y1403057D01*
X1589448Y1403194D01*
X1589312Y1403331D01*
X1589243D01*
X1588354Y1404014D01*
X1587603Y1404698D01*
X1587329Y1404971D01*
X1587124Y1405176D01*
X1587056Y1405313D01*
X1586987Y1405381D01*
D02*
G37*
G36*
X1543448Y1415497D02*
X1542969D01*
X1542491Y1415361D01*
X1542081Y1415155D01*
X1541876Y1414882D01*
X1541807Y1414814D01*
X1541602Y1414335D01*
Y1413788D01*
Y1413378D01*
X1541671Y1413242D01*
Y1413173D01*
X1541876Y1412490D01*
X1542217Y1412011D01*
X1542491Y1411738D01*
X1542559Y1411601D01*
X1542627D01*
X1543106Y1411191D01*
X1543584Y1410849D01*
X1543926Y1410576D01*
X1543994Y1410508D01*
X1544063D01*
X1544678Y1410166D01*
X1545156Y1409961D01*
X1545567Y1409824D01*
X1545635Y1409756D01*
X1545703D01*
X1546592Y1409482D01*
X1547344Y1409209D01*
X1547617Y1409140D01*
X1547890Y1409072D01*
X1548027Y1409004D01*
X1548096D01*
X1548984Y1408730D01*
X1549804Y1408525D01*
X1550146Y1408457D01*
X1550419Y1408389D01*
X1550556Y1408320D01*
X1550625D01*
X1550693Y1408457D01*
X1550761Y1408525D01*
X1550830Y1408730D01*
X1550898Y1408799D01*
X1550488Y1409551D01*
X1550078Y1410302D01*
X1549668Y1410918D01*
X1549326Y1411533D01*
X1548984Y1411943D01*
X1548711Y1412353D01*
X1548506Y1412558D01*
X1548437Y1412626D01*
X1547890Y1413242D01*
X1547275Y1413788D01*
X1546660Y1414198D01*
X1546045Y1414540D01*
X1545567Y1414882D01*
X1545156Y1415087D01*
X1544815Y1415155D01*
X1544746Y1415224D01*
X1544063Y1415429D01*
X1543448Y1415497D01*
D02*
G37*
G36*
X1504351Y1406611D02*
X1504146Y1406543D01*
X1503804Y1406407D01*
X1503530Y1406201D01*
X1503462Y1406133D01*
X1503257Y1405723D01*
X1503189Y1405381D01*
Y1405108D01*
Y1404971D01*
X1503325Y1404561D01*
X1503462Y1404151D01*
X1503599Y1403878D01*
X1503667Y1403809D01*
X1504282Y1402989D01*
X1504897Y1402305D01*
X1505103Y1402100D01*
X1505308Y1401895D01*
X1505444Y1401827D01*
X1505513Y1401759D01*
X1506401Y1401280D01*
X1507221Y1400870D01*
X1507563Y1400733D01*
X1507837Y1400597D01*
X1507973Y1400528D01*
X1508042D01*
X1508657Y1400323D01*
X1509204Y1400118D01*
X1509614Y1400050D01*
X1509682Y1399981D01*
X1509750D01*
X1510502Y1399913D01*
X1511118Y1399845D01*
X1511391Y1399913D01*
X1511801D01*
X1510844Y1401280D01*
X1510366Y1401895D01*
X1509955Y1402442D01*
X1509614Y1402852D01*
X1509340Y1403194D01*
X1509204Y1403399D01*
X1509135Y1403467D01*
X1507973Y1404561D01*
X1507426Y1405039D01*
X1506880Y1405450D01*
X1506401Y1405723D01*
X1505991Y1405928D01*
X1505718Y1406065D01*
X1505649Y1406133D01*
X1505308Y1406338D01*
X1504897Y1406475D01*
X1504624Y1406543D01*
X1504556D01*
X1504351Y1406611D01*
D02*
G37*
%LPD*%
D10*
X1557233Y1337669D02*
X1555400D01*
X1553568Y1339502D01*
Y1348665D01*
X1546237Y1350498D02*
X1544404Y1352331D01*
X1540738D01*
X1538906Y1350498D01*
Y1343167D01*
X1540738Y1341335D01*
X1544404D01*
X1546237Y1343167D01*
Y1350498D01*
X1535240Y1348665D02*
Y1343167D01*
X1533407Y1341335D01*
X1527909D01*
Y1348665D01*
X1524244Y1341335D02*
X1520578D01*
X1522411D01*
Y1352331D01*
X1524244D01*
X1509582Y1341335D02*
X1513247D01*
X1515080Y1343167D01*
Y1346833D01*
X1513247Y1348665D01*
X1509582D01*
X1507749Y1346833D01*
Y1345000D01*
X1515080D01*
X1493087Y1337669D02*
Y1348665D01*
X1487589D01*
X1485756Y1346833D01*
Y1343167D01*
X1487589Y1341335D01*
X1493087D01*
X1482091Y1348665D02*
Y1343167D01*
X1480258Y1341335D01*
X1474760D01*
Y1348665D01*
X1471094Y1341335D02*
Y1348665D01*
X1469262D01*
X1467429Y1346833D01*
Y1341335D01*
Y1346833D01*
X1465596Y1348665D01*
X1463763Y1346833D01*
Y1341335D01*
X1460098Y1337669D02*
Y1348665D01*
X1454600D01*
X1452767Y1346833D01*
Y1343167D01*
X1454600Y1341335D01*
X1460098D01*
D12*
X1780239Y1259998D02*
X1783571D01*
X1781905D01*
Y1251668D01*
X1783571Y1250002D01*
X1785237D01*
X1786903Y1251668D01*
X1776906Y1259998D02*
Y1250002D01*
X1770242D01*
X1760245Y1258332D02*
X1761911Y1259998D01*
X1765244D01*
X1766910Y1258332D01*
Y1251668D01*
X1765244Y1250002D01*
X1761911D01*
X1760245Y1251668D01*
X1750248Y1259998D02*
X1753581D01*
X1751915D01*
Y1251668D01*
X1753581Y1250002D01*
X1755247D01*
X1756913Y1251668D01*
X1746916Y1259998D02*
Y1250002D01*
X1740252D01*
X1730255Y1258332D02*
X1731921Y1259998D01*
X1735253D01*
X1736919Y1258332D01*
Y1251668D01*
X1735253Y1250002D01*
X1731921D01*
X1730255Y1251668D01*
X1720258Y1259998D02*
X1723590D01*
X1721924D01*
Y1251668D01*
X1723590Y1250002D01*
X1725257D01*
X1726923Y1251668D01*
X1716926Y1259998D02*
Y1250002D01*
X1710261D01*
X1700264Y1258332D02*
X1701931Y1259998D01*
X1705263D01*
X1706929Y1258332D01*
Y1251668D01*
X1705263Y1250002D01*
X1701931D01*
X1700264Y1251668D01*
X1690268Y1259998D02*
X1693600D01*
X1691934D01*
Y1251668D01*
X1693600Y1250002D01*
X1695266D01*
X1696932Y1251668D01*
X1686935Y1259998D02*
Y1250002D01*
X1680271D01*
X1670274Y1258332D02*
X1671940Y1259998D01*
X1675273D01*
X1676939Y1258332D01*
Y1251668D01*
X1675273Y1250002D01*
X1671940D01*
X1670274Y1251668D01*
M02*
