G04*
G04 #@! TF.GenerationSoftware,Altium Limited,Altium Designer,18.1.7 (191)*
G04*
G04 Layer_Color=8388736*
%FSLAX44Y44*%
%MOMM*%
G71*
G01*
G75*
%ADD15R,0.7532X1.0032*%
%ADD16R,0.8032X0.8032*%
%ADD17R,2.2032X2.2032*%
%ADD18R,3.2032X3.2032*%
%ADD19R,1.7032X1.7032*%
D15*
X1765000Y1346500D02*
D03*
X1774500Y1323500D02*
D03*
X1755500D02*
D03*
X1765000Y1311500D02*
D03*
X1774500Y1288500D02*
D03*
X1755500D02*
D03*
X1765000Y1393500D02*
D03*
X1755500Y1416500D02*
D03*
X1774500D02*
D03*
X1765000Y1381500D02*
D03*
X1774500Y1358500D02*
D03*
X1755500D02*
D03*
X1710000Y1346500D02*
D03*
X1719500Y1323500D02*
D03*
X1700500D02*
D03*
X1710000Y1311500D02*
D03*
X1719500Y1288500D02*
D03*
X1700500D02*
D03*
X1710000Y1393500D02*
D03*
X1700500Y1416500D02*
D03*
X1719500D02*
D03*
X1710000Y1381500D02*
D03*
X1719500Y1358500D02*
D03*
X1700500D02*
D03*
X1655000Y1346500D02*
D03*
X1664500Y1323500D02*
D03*
X1645500D02*
D03*
X1655000Y1311500D02*
D03*
X1664500Y1288500D02*
D03*
X1645500D02*
D03*
X1655000Y1393500D02*
D03*
X1645500Y1416500D02*
D03*
X1664500D02*
D03*
X1655000Y1381500D02*
D03*
X1664500Y1358500D02*
D03*
X1645500D02*
D03*
X1600000Y1346500D02*
D03*
X1609500Y1323500D02*
D03*
X1590500D02*
D03*
X1600000Y1311500D02*
D03*
X1609500Y1288500D02*
D03*
X1590500D02*
D03*
X1600000Y1393500D02*
D03*
X1590500Y1416500D02*
D03*
X1609500D02*
D03*
X1600000Y1381500D02*
D03*
X1609500Y1358500D02*
D03*
X1590500D02*
D03*
X1545000Y1381500D02*
D03*
X1554500Y1358500D02*
D03*
X1535500D02*
D03*
X1545000Y1393500D02*
D03*
X1535500Y1416500D02*
D03*
X1554500D02*
D03*
X1545000Y1311500D02*
D03*
X1554500Y1288500D02*
D03*
X1535500D02*
D03*
X1545000Y1346500D02*
D03*
X1554500Y1323500D02*
D03*
X1535500D02*
D03*
X1490000Y1393500D02*
D03*
X1480500Y1416500D02*
D03*
X1499500D02*
D03*
X1490000Y1311500D02*
D03*
X1499500Y1288500D02*
D03*
X1480500D02*
D03*
X1490000Y1381500D02*
D03*
X1499500Y1358500D02*
D03*
X1480500D02*
D03*
X1490000Y1346500D02*
D03*
X1499500Y1323500D02*
D03*
X1480500D02*
D03*
X1435000Y1393500D02*
D03*
X1425500Y1416500D02*
D03*
X1444500D02*
D03*
X1435000Y1311500D02*
D03*
X1444500Y1288500D02*
D03*
X1425500D02*
D03*
X1435000Y1381500D02*
D03*
X1444500Y1358500D02*
D03*
X1425500D02*
D03*
X1435000Y1346500D02*
D03*
X1444500Y1323500D02*
D03*
X1425500D02*
D03*
X1380000Y1346500D02*
D03*
X1389500Y1323500D02*
D03*
X1370500D02*
D03*
X1380000Y1381500D02*
D03*
X1389500Y1358500D02*
D03*
X1370500D02*
D03*
X1380000Y1311500D02*
D03*
X1389500Y1288500D02*
D03*
X1370500D02*
D03*
X1380000Y1393500D02*
D03*
X1370500Y1416500D02*
D03*
X1389500D02*
D03*
X1325000Y1346500D02*
D03*
X1334500Y1323500D02*
D03*
X1315500D02*
D03*
X1325000Y1381500D02*
D03*
X1334500Y1358500D02*
D03*
X1315500D02*
D03*
X1325000Y1311500D02*
D03*
X1334500Y1288500D02*
D03*
X1315500D02*
D03*
X1325000Y1393500D02*
D03*
X1315500Y1416500D02*
D03*
X1334500D02*
D03*
X1270000Y1381500D02*
D03*
X1279500Y1358500D02*
D03*
X1260500D02*
D03*
X1270000Y1393500D02*
D03*
X1260500Y1416500D02*
D03*
X1279500D02*
D03*
X1270000Y1346500D02*
D03*
X1279500Y1323500D02*
D03*
X1260500D02*
D03*
X1270000Y1311500D02*
D03*
X1279500Y1288500D02*
D03*
X1260500D02*
D03*
D16*
X1759920Y1525000D02*
D03*
X1770080D02*
D03*
X1759920Y1515000D02*
D03*
X1770080D02*
D03*
X1759920Y1505000D02*
D03*
X1770080D02*
D03*
X1759920Y1495000D02*
D03*
X1770080D02*
D03*
X1759920Y1485000D02*
D03*
X1770080D02*
D03*
X1759920Y1475000D02*
D03*
X1770080D02*
D03*
X1759920Y1465000D02*
D03*
X1770080D02*
D03*
X1759920Y1455000D02*
D03*
X1770080D02*
D03*
X1759920Y1445000D02*
D03*
X1770080D02*
D03*
X1759920Y1435000D02*
D03*
X1770080D02*
D03*
X1704920D02*
D03*
X1715080D02*
D03*
X1704920Y1525000D02*
D03*
X1715080D02*
D03*
X1704920Y1515000D02*
D03*
X1715080D02*
D03*
X1704920Y1505000D02*
D03*
X1715080D02*
D03*
X1704920Y1495000D02*
D03*
X1715080D02*
D03*
X1704920Y1485000D02*
D03*
X1715080D02*
D03*
X1704920Y1475000D02*
D03*
X1715080D02*
D03*
X1704920Y1465000D02*
D03*
X1715080D02*
D03*
X1704920Y1455000D02*
D03*
X1715080D02*
D03*
X1704920Y1445000D02*
D03*
X1715080D02*
D03*
X1649920Y1525000D02*
D03*
X1660080D02*
D03*
X1649920Y1515000D02*
D03*
X1660080D02*
D03*
X1649920Y1505000D02*
D03*
X1660080D02*
D03*
X1649920Y1495000D02*
D03*
X1660080D02*
D03*
X1649920Y1485000D02*
D03*
X1660080D02*
D03*
X1649920Y1475000D02*
D03*
X1660080D02*
D03*
X1649920Y1465000D02*
D03*
X1660080D02*
D03*
X1649920Y1455000D02*
D03*
X1660080D02*
D03*
X1649920Y1445000D02*
D03*
X1660080D02*
D03*
X1649920Y1435000D02*
D03*
X1660080D02*
D03*
X1594920Y1525000D02*
D03*
X1605080D02*
D03*
X1594920Y1515000D02*
D03*
X1605080D02*
D03*
X1594920Y1505000D02*
D03*
X1605080D02*
D03*
X1594920Y1495000D02*
D03*
X1605080D02*
D03*
X1594920Y1485000D02*
D03*
X1605080D02*
D03*
X1594920Y1475000D02*
D03*
X1605080D02*
D03*
X1594920Y1465000D02*
D03*
X1605080D02*
D03*
X1594920Y1455000D02*
D03*
X1605080D02*
D03*
X1594920Y1445000D02*
D03*
X1605080D02*
D03*
X1594920Y1435000D02*
D03*
X1605080D02*
D03*
X1539920D02*
D03*
X1550080D02*
D03*
X1539920Y1445000D02*
D03*
X1550080D02*
D03*
X1539920Y1455000D02*
D03*
X1550080D02*
D03*
X1539920Y1465000D02*
D03*
X1550080D02*
D03*
X1539920Y1475000D02*
D03*
X1550080D02*
D03*
X1539920Y1485000D02*
D03*
X1550080D02*
D03*
X1539920Y1495000D02*
D03*
X1550080D02*
D03*
X1539920Y1505000D02*
D03*
X1550080D02*
D03*
X1539920Y1515000D02*
D03*
X1550080D02*
D03*
X1539920Y1525000D02*
D03*
X1550080D02*
D03*
X1484920D02*
D03*
X1495080D02*
D03*
X1484920Y1515000D02*
D03*
X1495080D02*
D03*
X1484920Y1485000D02*
D03*
X1495080D02*
D03*
X1484920Y1495000D02*
D03*
X1495080D02*
D03*
X1484920Y1505000D02*
D03*
X1495080D02*
D03*
X1484920Y1435000D02*
D03*
X1495080D02*
D03*
X1484920Y1475000D02*
D03*
X1495080D02*
D03*
X1484920Y1465000D02*
D03*
X1495080D02*
D03*
X1484920Y1455000D02*
D03*
X1495080D02*
D03*
X1484920Y1445000D02*
D03*
X1495080D02*
D03*
X1429920Y1525000D02*
D03*
X1440080D02*
D03*
X1429920Y1515000D02*
D03*
X1440080D02*
D03*
X1429920Y1485000D02*
D03*
X1440080D02*
D03*
X1429920Y1495000D02*
D03*
X1440080D02*
D03*
X1429920Y1505000D02*
D03*
X1440080D02*
D03*
X1429920Y1435000D02*
D03*
X1440080D02*
D03*
X1429920Y1475000D02*
D03*
X1440080D02*
D03*
X1429920Y1465000D02*
D03*
X1440080D02*
D03*
X1429920Y1455000D02*
D03*
X1440080D02*
D03*
X1429920Y1445000D02*
D03*
X1440080D02*
D03*
X1374920D02*
D03*
X1385080D02*
D03*
X1374920Y1455000D02*
D03*
X1385080D02*
D03*
X1374920Y1465000D02*
D03*
X1385080D02*
D03*
X1374920Y1475000D02*
D03*
X1385080D02*
D03*
X1374920Y1435000D02*
D03*
X1385080D02*
D03*
X1374920Y1505000D02*
D03*
X1385080D02*
D03*
X1374920Y1495000D02*
D03*
X1385080D02*
D03*
X1374920Y1485000D02*
D03*
X1385080D02*
D03*
X1374920Y1515000D02*
D03*
X1385080D02*
D03*
X1374920Y1525000D02*
D03*
X1385080D02*
D03*
X1319920D02*
D03*
X1330080D02*
D03*
X1319920Y1445000D02*
D03*
X1330080D02*
D03*
X1319920Y1455000D02*
D03*
X1330080D02*
D03*
X1319920Y1465000D02*
D03*
X1330080D02*
D03*
X1319920Y1475000D02*
D03*
X1330080D02*
D03*
X1319920Y1435000D02*
D03*
X1330080D02*
D03*
X1319920Y1505000D02*
D03*
X1330080D02*
D03*
X1319920Y1495000D02*
D03*
X1330080D02*
D03*
X1319920Y1485000D02*
D03*
X1330080D02*
D03*
X1319920Y1515000D02*
D03*
X1330080D02*
D03*
X1264920D02*
D03*
X1275080D02*
D03*
X1264920Y1525000D02*
D03*
X1275080D02*
D03*
X1264920Y1435000D02*
D03*
X1275080D02*
D03*
X1264920Y1445000D02*
D03*
X1275080D02*
D03*
X1264920Y1455000D02*
D03*
X1275080D02*
D03*
X1264920Y1465000D02*
D03*
X1275080D02*
D03*
X1264920Y1475000D02*
D03*
X1275080D02*
D03*
X1264920Y1485000D02*
D03*
X1275080D02*
D03*
X1264920Y1495000D02*
D03*
X1275080D02*
D03*
X1264920Y1505000D02*
D03*
X1275080D02*
D03*
D17*
X1220000Y1360000D02*
D03*
Y1310000D02*
D03*
D18*
Y1535000D02*
D03*
Y1425000D02*
D03*
Y1270000D02*
D03*
D19*
X1785000Y1545000D02*
D03*
X1730000D02*
D03*
X1675000D02*
D03*
X1620000D02*
D03*
X1565000D02*
D03*
X1510000D02*
D03*
X1455000D02*
D03*
X1290000D02*
D03*
X1400000D02*
D03*
X1345000D02*
D03*
M02*
